<svg xmlns="http://www.w3.org/2000/svg" xmlns:xlink="http://www.w3.org/1999/xlink" width="124" zoomAndPan="magnify" viewBox="0 0 93 30.000001" height="40" preserveAspectRatio="xMidYMid meet" version="1.0"><defs><g/><clipPath id="id1"><path d="M 8 22 L 19 22 L 19 26.492188 L 8 26.492188 Z M 8 22 " clip-rule="nonzero"/></clipPath><clipPath id="id2"><path d="M 4.402344 2.539062 L 21.824219 2.539062 L 21.824219 25 L 4.402344 25 Z M 4.402344 2.539062 " clip-rule="nonzero"/></clipPath></defs><g clip-path="url(#id1)"><path fill="#d9d9d9" d="M 18.285156 24.257812 C 18.285156 25.480469 16.011719 26.472656 13.210938 26.472656 C 10.410156 26.472656 8.140625 25.480469 8.140625 24.257812 C 8.140625 23.039062 10.410156 22.046875 13.210938 22.046875 C 16.011719 22.046875 18.285156 23.039062 18.285156 24.257812 Z M 18.285156 24.257812 " fill-opacity="1" fill-rule="nonzero"/></g><g clip-path="url(#id2)"><path fill="#004aad" d="M 21.835938 11.308594 C 21.835938 10.71875 21.78125 10.140625 21.660156 9.566406 C 21.542969 8.992188 21.371094 8.4375 21.140625 7.898438 C 20.910156 7.359375 20.628906 6.847656 20.296875 6.367188 C 19.960938 5.886719 19.585938 5.441406 19.160156 5.039062 C 18.738281 4.632812 18.277344 4.277344 17.78125 3.964844 C 17.285156 3.65625 16.765625 3.398438 16.21875 3.191406 C 15.667969 2.988281 15.105469 2.839844 14.527344 2.753906 C 13.949219 2.664062 13.371094 2.632812 12.785156 2.660156 C 8.679688 2.859375 4.867188 6.59375 4.605469 10.707031 C 4.558594 11.402344 4.59375 12.09375 4.710938 12.78125 C 4.828125 13.464844 5.027344 14.128906 5.304688 14.769531 C 5.585938 15.40625 5.9375 16.003906 6.359375 16.554688 C 6.78125 17.109375 7.265625 17.601562 7.808594 18.039062 C 9.882812 19.660156 11.539062 21.632812 12.78125 23.957031 L 13.027344 24.453125 C 13.066406 24.527344 13.128906 24.5625 13.210938 24.5625 C 13.292969 24.5625 13.355469 24.527344 13.394531 24.453125 L 13.539062 24.167969 C 14.785156 21.765625 16.472656 19.722656 18.589844 18.039062 C 19.613281 17.222656 20.410156 16.222656 20.980469 15.042969 C 21.550781 13.863281 21.835938 12.617188 21.835938 11.308594 Z M 21.835938 11.308594 " fill-opacity="1" fill-rule="nonzero"/></g><path fill="#004aad" d="M 13.210938 22.046875 C 12.703125 22.046875 12.195312 22.082031 11.6875 22.152344 C 12.089844 22.730469 12.457031 23.332031 12.78125 23.957031 L 13.027344 24.453125 C 13.066406 24.527344 13.128906 24.5625 13.210938 24.5625 C 13.292969 24.5625 13.355469 24.527344 13.394531 24.453125 L 13.539062 24.167969 C 13.902344 23.484375 14.304688 22.820312 14.75 22.183594 C 14.242188 22.105469 13.726562 22.058594 13.210938 22.046875 Z M 13.210938 22.046875 " fill-opacity="1" fill-rule="nonzero"/><path fill="#d9d9d9" d="M 10.820312 11.992188 L 9.90625 8.324219 C 9.839844 8.070312 9.675781 7.9375 9.410156 7.933594 L 7.769531 7.933594 C 7.632812 7.945312 7.519531 8.003906 7.425781 8.105469 C 7.335938 8.207031 7.289062 8.324219 7.289062 8.460938 C 7.289062 8.597656 7.335938 8.71875 7.425781 8.820312 C 7.519531 8.917969 7.632812 8.976562 7.769531 8.988281 L 8.539062 8.988281 C 8.738281 8.988281 8.863281 9.085938 8.910156 9.277344 L 9.589844 11.992188 C 9.617188 12.109375 9.683594 12.207031 9.777344 12.285156 C 9.875 12.359375 9.984375 12.398438 10.109375 12.398438 L 11.355469 12.398438 C 11.230469 12.402344 11.117188 12.363281 11.019531 12.289062 C 10.917969 12.210938 10.851562 12.113281 10.820312 11.992188 Z M 10.820312 11.992188 " fill-opacity="1" fill-rule="nonzero"/><path fill="#ffffff" d="M 15.6875 14.507812 L 10.628906 14.507812 C 10.503906 14.507812 10.394531 14.46875 10.296875 14.394531 C 10.199219 14.316406 10.132812 14.21875 10.105469 14.097656 L 9.1875 10.433594 C 9.167969 10.351562 9.167969 10.273438 9.183594 10.191406 C 9.203125 10.109375 9.238281 10.035156 9.289062 9.96875 C 9.339844 9.90625 9.402344 9.855469 9.476562 9.816406 C 9.550781 9.78125 9.628906 9.765625 9.714844 9.765625 L 16.640625 9.765625 C 16.722656 9.765625 16.804688 9.78125 16.878906 9.816406 C 16.953125 9.855469 17.015625 9.90625 17.066406 9.96875 C 17.117188 10.035156 17.152344 10.109375 17.167969 10.191406 C 17.1875 10.273438 17.1875 10.351562 17.164062 10.433594 L 16.25 14.097656 C 16.21875 14.226562 16.148438 14.328125 16.042969 14.40625 C 15.9375 14.484375 15.816406 14.515625 15.6875 14.507812 Z M 15.6875 14.507812 " fill-opacity="1" fill-rule="nonzero"/><path fill="#ffffff" d="M 11.746094 16.277344 C 11.746094 16.5 11.667969 16.695312 11.507812 16.851562 C 11.351562 17.011719 11.160156 17.089844 10.933594 17.089844 C 10.710938 17.089844 10.519531 17.011719 10.363281 16.851562 C 10.203125 16.695312 10.125 16.5 10.125 16.277344 C 10.125 16.050781 10.203125 15.859375 10.363281 15.703125 C 10.519531 15.542969 10.710938 15.464844 10.933594 15.464844 C 11.160156 15.464844 11.351562 15.542969 11.507812 15.703125 C 11.667969 15.859375 11.746094 16.050781 11.746094 16.277344 Z M 11.746094 16.277344 " fill-opacity="1" fill-rule="nonzero"/><path fill="#ffffff" d="M 16.207031 16.277344 C 16.207031 16.5 16.125 16.695312 15.96875 16.851562 C 15.808594 17.011719 15.617188 17.089844 15.394531 17.089844 C 15.171875 17.089844 14.980469 17.011719 14.820312 16.851562 C 14.660156 16.695312 14.582031 16.5 14.582031 16.277344 C 14.582031 16.050781 14.660156 15.859375 14.820312 15.703125 C 14.980469 15.542969 15.171875 15.464844 15.394531 15.464844 C 15.617188 15.464844 15.808594 15.542969 15.96875 15.703125 C 16.125 15.859375 16.207031 16.050781 16.207031 16.277344 Z M 16.207031 16.277344 " fill-opacity="1" fill-rule="nonzero"/><g fill="#004aad" fill-opacity="1"><g transform="translate(39.630038, 19.597615)"><g><path d="M 10.984375 0 L 7.3125 0 L 3.53125 -7.296875 L 3.46875 -7.296875 C 3.550781 -6.148438 3.59375 -5.273438 3.59375 -4.671875 L 3.59375 0 L 1.125 0 L 1.125 -10.359375 L 4.78125 -10.359375 L 8.546875 -3.15625 L 8.59375 -3.15625 C 8.519531 -4.207031 8.484375 -5.046875 8.484375 -5.671875 L 8.484375 -10.359375 L 10.984375 -10.359375 Z M 10.984375 0 "/></g></g><g transform="translate(51.736263, 19.597615)"><g><path d="M 1.125 0 L 1.125 -10.359375 L 3.9375 -10.359375 L 3.9375 0 Z M 1.125 0 "/></g></g><g transform="translate(56.789974, 19.597615)"><g><path d="M 7.484375 0 L 6.96875 -1.9375 L 3.59375 -1.9375 L 3.078125 0 L 0 0 L 3.375 -10.40625 L 7.109375 -10.40625 L 10.546875 0 Z M 6.390625 -4.234375 L 5.9375 -5.9375 C 5.832031 -6.3125 5.707031 -6.800781 5.5625 -7.40625 C 5.414062 -8.007812 5.316406 -8.441406 5.265625 -8.703125 C 5.222656 -8.453125 5.140625 -8.050781 5.015625 -7.5 C 4.890625 -6.945312 4.613281 -5.859375 4.1875 -4.234375 Z M 6.390625 -4.234375 "/></g></g><g transform="translate(67.329761, 19.597615)"><g><path d="M 5.28125 -6.0625 L 9.75 -6.0625 L 9.75 -0.484375 C 8.539062 -0.0664062 7.207031 0.140625 5.75 0.140625 C 4.15625 0.140625 2.921875 -0.320312 2.046875 -1.25 C 1.171875 -2.175781 0.734375 -3.492188 0.734375 -5.203125 C 0.734375 -6.878906 1.207031 -8.179688 2.15625 -9.109375 C 3.113281 -10.046875 4.457031 -10.515625 6.1875 -10.515625 C 6.832031 -10.515625 7.441406 -10.453125 8.015625 -10.328125 C 8.597656 -10.203125 9.109375 -10.046875 9.546875 -9.859375 L 8.65625 -7.65625 C 7.90625 -8.03125 7.082031 -8.21875 6.1875 -8.21875 C 5.375 -8.21875 4.742188 -7.953125 4.296875 -7.421875 C 3.847656 -6.890625 3.625 -6.128906 3.625 -5.140625 C 3.625 -4.171875 3.828125 -3.429688 4.234375 -2.921875 C 4.640625 -2.410156 5.222656 -2.15625 5.984375 -2.15625 C 6.398438 -2.15625 6.78125 -2.195312 7.125 -2.28125 L 7.125 -3.90625 L 5.28125 -3.90625 Z M 5.28125 -6.0625 "/></g></g><g transform="translate(78.075098, 19.597615)"><g><path d="M 7.484375 0 L 6.96875 -1.9375 L 3.59375 -1.9375 L 3.078125 0 L 0 0 L 3.375 -10.40625 L 7.109375 -10.40625 L 10.546875 0 Z M 6.390625 -4.234375 L 5.9375 -5.9375 C 5.832031 -6.3125 5.707031 -6.800781 5.5625 -7.40625 C 5.414062 -8.007812 5.316406 -8.441406 5.265625 -8.703125 C 5.222656 -8.453125 5.140625 -8.050781 5.015625 -7.5 C 4.890625 -6.945312 4.613281 -5.859375 4.1875 -4.234375 Z M 6.390625 -4.234375 "/></g></g></g><g fill="#ffffff" fill-opacity="1"><g transform="translate(26.046368, 18.581468)"><g><path d="M 4.828125 0.140625 C 3.492188 0.140625 2.457031 -0.210938 1.71875 -0.921875 C 0.976562 -1.628906 0.609375 -2.644531 0.609375 -3.96875 C 0.609375 -5.320312 0.953125 -6.359375 1.640625 -7.078125 C 2.328125 -7.804688 3.304688 -8.171875 4.578125 -8.171875 C 5.785156 -8.171875 6.71875 -7.851562 7.375 -7.21875 C 8.03125 -6.59375 8.359375 -5.6875 8.359375 -4.5 L 8.359375 -3.265625 L 3.40625 -3.265625 C 3.425781 -2.816406 3.585938 -2.460938 3.890625 -2.203125 C 4.203125 -1.953125 4.628906 -1.828125 5.171875 -1.828125 C 5.648438 -1.828125 6.09375 -1.875 6.5 -1.96875 C 6.914062 -2.0625 7.363281 -2.21875 7.84375 -2.4375 L 7.84375 -0.453125 C 7.40625 -0.222656 6.953125 -0.0664062 6.484375 0.015625 C 6.023438 0.0976562 5.472656 0.140625 4.828125 0.140625 Z M 4.671875 -6.28125 C 4.347656 -6.28125 4.070312 -6.175781 3.84375 -5.96875 C 3.625 -5.769531 3.5 -5.453125 3.46875 -5.015625 L 5.84375 -5.015625 C 5.832031 -5.398438 5.722656 -5.707031 5.515625 -5.9375 C 5.304688 -6.164062 5.023438 -6.28125 4.671875 -6.28125 Z M 4.671875 -6.28125 "/></g></g><g transform="translate(35.019718, 18.581468)"><g><path d="M 0.3125 -2.78125 L 0.3125 -5 L 4.3125 -5 L 4.3125 -2.78125 Z M 0.3125 -2.78125 "/></g></g></g></svg>