<svg xmlns="http://www.w3.org/2000/svg" xmlns:xlink="http://www.w3.org/1999/xlink" width="124" zoomAndPan="magnify" viewBox="0 0 93 30.000001" height="40" preserveAspectRatio="xMidYMid meet" version="1.0"><defs><g/><clipPath id="id1"><path d="M 10.464844 13 L 22 13 L 22 16 L 10.464844 16 Z M 10.464844 13 " clip-rule="nonzero"/></clipPath><clipPath id="id2"><path d="M 15 5.808594 L 28.613281 5.808594 L 28.613281 23.226562 L 15 23.226562 Z M 15 5.808594 " clip-rule="nonzero"/></clipPath></defs><g fill="#004aad" fill-opacity="1"><g transform="translate(34.7882, 19.597616)"><g><path d="M 1.125 0 L 1.125 -10.359375 L 3.921875 -10.359375 L 3.921875 -2.265625 L 7.90625 -2.265625 L 7.90625 0 Z M 1.125 0 "/></g></g><g transform="translate(43.237041, 19.597616)"><g><path d="M 10.8125 -5.1875 C 10.8125 -3.445312 10.382812 -2.125 9.53125 -1.21875 C 8.675781 -0.3125 7.425781 0.140625 5.78125 0.140625 C 4.15625 0.140625 2.90625 -0.3125 2.03125 -1.21875 C 1.164062 -2.132812 0.734375 -3.460938 0.734375 -5.203125 C 0.734375 -6.929688 1.164062 -8.25 2.03125 -9.15625 C 2.894531 -10.070312 4.148438 -10.53125 5.796875 -10.53125 C 7.441406 -10.53125 8.6875 -10.078125 9.53125 -9.171875 C 10.382812 -8.265625 10.8125 -6.9375 10.8125 -5.1875 Z M 3.6875 -5.1875 C 3.6875 -3.1875 4.382812 -2.1875 5.78125 -2.1875 C 6.488281 -2.1875 7.015625 -2.429688 7.359375 -2.921875 C 7.703125 -3.410156 7.875 -4.164062 7.875 -5.1875 C 7.875 -6.226562 7.695312 -6.992188 7.34375 -7.484375 C 7 -7.984375 6.484375 -8.234375 5.796875 -8.234375 C 4.390625 -8.234375 3.6875 -7.21875 3.6875 -5.1875 Z M 3.6875 -5.1875 "/></g></g><g transform="translate(54.804581, 19.597616)"><g><path d="M 5.28125 -6.0625 L 9.75 -6.0625 L 9.75 -0.484375 C 8.539062 -0.0664062 7.207031 0.140625 5.75 0.140625 C 4.15625 0.140625 2.921875 -0.320312 2.046875 -1.25 C 1.171875 -2.175781 0.734375 -3.492188 0.734375 -5.203125 C 0.734375 -6.878906 1.207031 -8.179688 2.15625 -9.109375 C 3.113281 -10.046875 4.457031 -10.515625 6.1875 -10.515625 C 6.832031 -10.515625 7.441406 -10.453125 8.015625 -10.328125 C 8.597656 -10.203125 9.109375 -10.046875 9.546875 -9.859375 L 8.65625 -7.65625 C 7.90625 -8.03125 7.082031 -8.21875 6.1875 -8.21875 C 5.375 -8.21875 4.742188 -7.953125 4.296875 -7.421875 C 3.847656 -6.890625 3.625 -6.128906 3.625 -5.140625 C 3.625 -4.171875 3.828125 -3.429688 4.234375 -2.921875 C 4.640625 -2.410156 5.222656 -2.15625 5.984375 -2.15625 C 6.398438 -2.15625 6.78125 -2.195312 7.125 -2.28125 L 7.125 -3.90625 L 5.28125 -3.90625 Z M 5.28125 -6.0625 "/></g></g><g transform="translate(65.549919, 19.597616)"><g><path d="M 1.125 0 L 1.125 -10.359375 L 3.9375 -10.359375 L 3.9375 0 Z M 1.125 0 "/></g></g><g transform="translate(70.60363, 19.597616)"><g><path d="M 10.984375 0 L 7.3125 0 L 3.53125 -7.296875 L 3.46875 -7.296875 C 3.550781 -6.148438 3.59375 -5.273438 3.59375 -4.671875 L 3.59375 0 L 1.125 0 L 1.125 -10.359375 L 4.78125 -10.359375 L 8.546875 -3.15625 L 8.59375 -3.15625 C 8.519531 -4.207031 8.484375 -5.046875 8.484375 -5.671875 L 8.484375 -10.359375 L 10.984375 -10.359375 Z M 10.984375 0 "/></g></g></g><g clip-path="url(#id1)"><path fill="#b0b7bf" d="M 10.464844 13.550781 L 21.925781 13.550781 L 21.925781 15.484375 L 10.464844 15.484375 Z M 10.464844 13.550781 " fill-opacity="1" fill-rule="evenodd"/></g><path fill="#b0b7bf" d="M 19.257812 10.445312 L 22.601562 13.832031 C 22.976562 14.210938 22.976562 14.824219 22.601562 15.199219 L 19.257812 18.585938 L 17.910156 17.21875 L 20.578125 14.515625 L 17.910156 11.816406 Z M 19.257812 10.445312 " fill-opacity="1" fill-rule="evenodd"/><g clip-path="url(#id2)"><path fill="#b0b7bf" d="M 15.242188 6.777344 C 15.242188 6.242188 15.667969 5.808594 16.195312 5.808594 L 27.65625 5.808594 C 28.183594 5.808594 28.613281 6.242188 28.613281 6.777344 L 28.613281 22.257812 C 28.613281 22.792969 28.183594 23.226562 27.65625 23.226562 L 16.195312 23.226562 C 15.667969 23.226562 15.242188 22.792969 15.242188 22.257812 L 15.242188 19.355469 L 17.152344 19.355469 L 17.152344 21.289062 L 26.703125 21.289062 L 26.703125 7.746094 L 17.152344 7.746094 L 17.152344 9.679688 L 15.242188 9.679688 Z M 15.242188 6.777344 " fill-opacity="1" fill-rule="evenodd"/></g></svg>