<svg xmlns="http://www.w3.org/2000/svg" xmlns:xlink="http://www.w3.org/1999/xlink" width="40" zoomAndPan="magnify" viewBox="0 0 30 30.000001" height="40" preserveAspectRatio="xMidYMid meet" version="1.0"><defs><clipPath id="id1"><path d="M 3.386719 2.902344 L 26.613281 2.902344 L 26.613281 26.128906 L 3.386719 26.128906 Z M 3.386719 2.902344 " clip-rule="nonzero"/></clipPath></defs><g clip-path="url(#id1)"><path fill="#004aad" d="M 10.355469 21.484375 C 9.070312 21.484375 8.042969 22.523438 8.042969 23.804688 C 8.042969 25.089844 9.070312 26.128906 10.355469 26.128906 C 11.636719 26.128906 12.675781 25.089844 12.675781 23.804688 C 12.675781 22.523438 11.636719 21.484375 10.355469 21.484375 Z M 3.386719 2.902344 L 3.386719 5.226562 L 5.710938 5.226562 L 9.882812 14.035156 L 8.316406 16.878906 C 8.136719 17.214844 8.03125 17.59375 8.03125 18 C 8.03125 19.285156 9.070312 20.324219 10.355469 20.324219 L 24.289062 20.324219 L 24.289062 18 L 10.847656 18 C 10.6875 18 10.558594 17.871094 10.558594 17.710938 C 10.558594 17.65625 10.570312 17.609375 10.59375 17.570312 L 11.632812 15.675781 L 20.285156 15.675781 C 21.15625 15.675781 21.914062 15.195312 22.316406 14.480469 L 26.46875 6.945312 C 26.5625 6.78125 26.613281 6.589844 26.613281 6.386719 C 26.613281 5.742188 26.089844 5.226562 25.453125 5.226562 L 8.28125 5.226562 L 7.179688 2.902344 Z M 21.96875 21.484375 C 20.683594 21.484375 19.65625 22.523438 19.65625 23.804688 C 19.65625 25.089844 20.683594 26.128906 21.96875 26.128906 C 23.25 26.128906 24.289062 25.089844 24.289062 23.804688 C 24.289062 22.523438 23.25 21.484375 21.96875 21.484375 Z M 21.96875 21.484375 " fill-opacity="1" fill-rule="nonzero"/></g></svg>