<svg xmlns="http://www.w3.org/2000/svg" xmlns:xlink="http://www.w3.org/1999/xlink" width="350" zoomAndPan="magnify" viewBox="0 0 262.5 262.500001" height="350" preserveAspectRatio="xMidYMid meet" version="1.0"><defs><clipPath id="id1"><path d="M 26.25 26.25 L 236.25 26.25 L 236.25 236.25 L 26.25 236.25 Z M 26.25 26.25 " clip-rule="nonzero"/></clipPath></defs><path fill="#222222" d="M 124.457031 127.863281 L 110.910156 127.863281 C 109.039062 127.863281 107.523438 129.378906 107.523438 131.25 C 107.523438 133.121094 109.039062 134.636719 110.910156 134.636719 L 114.296875 134.636719 L 114.296875 158.339844 C 114.296875 173.28125 102.144531 185.433594 87.207031 185.433594 C 72.265625 185.433594 60.113281 173.28125 60.113281 158.339844 L 60.113281 134.636719 L 63.5 134.636719 C 65.371094 134.636719 66.886719 133.121094 66.886719 131.25 C 66.886719 129.378906 65.371094 127.863281 63.5 127.863281 L 49.953125 127.863281 C 48.085938 127.863281 46.570312 129.378906 46.570312 131.25 C 46.570312 133.121094 48.085938 134.636719 49.953125 134.636719 L 53.339844 134.636719 L 53.339844 158.339844 C 53.339844 177.015625 68.53125 192.207031 87.207031 192.207031 C 105.878906 192.207031 121.070312 177.015625 121.070312 158.339844 L 121.070312 134.636719 L 124.457031 134.636719 C 126.324219 134.636719 127.84375 133.121094 127.84375 131.25 C 127.84375 129.378906 126.324219 127.863281 124.457031 127.863281 Z M 124.457031 127.863281 " fill-opacity="1" fill-rule="nonzero"/><g clip-path="url(#id1)"><path fill="#222222" d="M 229.429688 83.6875 C 229.351562 81.875 227.859375 80.453125 226.046875 80.453125 L 198.957031 80.453125 L 198.957031 63.523438 C 198.957031 42.984375 182.246094 26.269531 161.707031 26.269531 C 141.167969 26.269531 124.457031 42.984375 124.457031 63.523438 L 124.457031 80.453125 L 97.363281 80.453125 C 95.546875 80.453125 94.054688 81.890625 93.984375 83.703125 L 92.882812 110.929688 L 29.636719 110.929688 C 27.765625 110.929688 26.25 112.445312 26.25 114.316406 L 26.25 224.375 C 26.25 230.914062 31.566406 236.230469 38.101562 236.230469 L 232.820312 236.230469 C 233.742188 236.230469 234.628906 235.851562 235.269531 235.183594 C 235.90625 234.515625 236.246094 233.613281 236.203125 232.691406 Z M 131.230469 63.523438 C 131.230469 46.714844 144.902344 33.042969 161.707031 33.042969 C 178.511719 33.042969 192.183594 46.714844 192.183594 63.523438 L 192.183594 80.453125 L 131.230469 80.453125 Z M 141.386719 224.375 C 141.386719 227.179688 139.109375 229.457031 136.308594 229.457031 L 38.101562 229.457031 C 35.300781 229.457031 33.023438 227.179688 33.023438 224.375 L 33.023438 117.703125 L 141.386719 117.703125 Z M 147.015625 229.457031 C 147.75 227.914062 148.160156 226.191406 148.160156 224.375 L 148.160156 114.316406 C 148.160156 112.445312 146.644531 110.929688 144.773438 110.929688 L 99.660156 110.929688 L 100.617188 87.226562 L 124.457031 87.226562 L 124.457031 94 L 121.070312 94 C 119.199219 94 117.683594 95.515625 117.683594 97.386719 C 117.683594 99.257812 119.199219 100.773438 121.070312 100.773438 L 134.613281 100.773438 C 136.484375 100.773438 138 99.257812 138 97.386719 C 138 95.515625 136.484375 94 134.613281 94 L 131.230469 94 L 131.230469 87.226562 L 192.183594 87.226562 L 192.183594 94 L 188.796875 94 C 186.925781 94 185.410156 95.515625 185.410156 97.386719 C 185.410156 99.257812 186.925781 100.773438 188.796875 100.773438 L 202.34375 100.773438 C 204.214844 100.773438 205.730469 99.257812 205.730469 97.386719 C 205.730469 95.515625 204.214844 94 202.34375 94 L 198.957031 94 L 198.957031 87.226562 L 222.8125 87.226562 L 229.277344 229.457031 Z M 147.015625 229.457031 " fill-opacity="1" fill-rule="nonzero"/></g></svg>