<svg xmlns="http://www.w3.org/2000/svg" xmlns:xlink="http://www.w3.org/1999/xlink" width="350" zoomAndPan="magnify" viewBox="0 0 262.5 262.500001" height="350" preserveAspectRatio="xMidYMid meet" version="1.0"><defs><clipPath id="id1"><path d="M 26.25 26.25 L 236.25 26.25 L 236.25 236.25 L 26.25 236.25 Z M 26.25 26.25 " clip-rule="nonzero"/></clipPath></defs><g clip-path="url(#id1)"><path fill="#000000" d="M 131.25 236.25 C 129.53125 236.25 127.8125 236.207031 126.097656 236.125 C 124.382812 236.039062 122.667969 235.914062 120.957031 235.746094 C 119.25 235.574219 117.542969 235.367188 115.84375 235.113281 C 114.144531 234.863281 112.449219 234.566406 110.765625 234.230469 C 109.082031 233.898438 107.402344 233.519531 105.738281 233.101562 C 104.070312 232.6875 102.414062 232.226562 100.769531 231.730469 C 99.125 231.230469 97.496094 230.691406 95.875 230.113281 C 94.257812 229.53125 92.65625 228.914062 91.066406 228.257812 C 89.480469 227.601562 87.910156 226.902344 86.355469 226.167969 C 84.804688 225.433594 83.269531 224.660156 81.753906 223.851562 C 80.238281 223.042969 78.742188 222.195312 77.269531 221.3125 C 75.796875 220.429688 74.34375 219.507812 72.914062 218.554688 C 71.484375 217.597656 70.082031 216.609375 68.703125 215.585938 C 67.320312 214.5625 65.96875 213.507812 64.640625 212.417969 C 63.308594 211.324219 62.007812 210.203125 60.734375 209.050781 C 59.464844 207.894531 58.21875 206.710938 57.003906 205.496094 C 55.789062 204.28125 54.605469 203.035156 53.449219 201.761719 C 52.296875 200.492188 51.175781 199.191406 50.082031 197.859375 C 48.992188 196.53125 47.9375 195.179688 46.914062 193.796875 C 45.890625 192.417969 44.898438 191.011719 43.945312 189.585938 C 42.992188 188.15625 42.070312 186.703125 41.1875 185.230469 C 40.304688 183.757812 39.457031 182.261719 38.648438 180.746094 C 37.839844 179.230469 37.066406 177.695312 36.332031 176.144531 C 35.597656 174.589844 34.898438 173.019531 34.242188 171.433594 C 33.585938 169.84375 32.964844 168.242188 32.386719 166.625 C 31.808594 165.003906 31.269531 163.375 30.769531 161.730469 C 30.273438 160.085938 29.8125 158.429688 29.398438 156.761719 C 28.980469 155.097656 28.601562 153.417969 28.265625 151.734375 C 27.933594 150.050781 27.636719 148.355469 27.386719 146.65625 C 27.132812 144.957031 26.925781 143.25 26.753906 141.542969 C 26.585938 139.832031 26.460938 138.117188 26.375 136.402344 C 26.292969 134.6875 26.25 132.96875 26.25 131.25 C 26.25 129.53125 26.292969 127.8125 26.375 126.097656 C 26.460938 124.382812 26.585938 122.667969 26.753906 120.957031 C 26.925781 119.25 27.132812 117.542969 27.386719 115.84375 C 27.636719 114.144531 27.933594 112.449219 28.265625 110.765625 C 28.601562 109.082031 28.980469 107.402344 29.398438 105.738281 C 29.8125 104.070312 30.273438 102.414062 30.769531 100.769531 C 31.269531 99.125 31.808594 97.496094 32.386719 95.875 C 32.964844 94.257812 33.585938 92.65625 34.242188 91.066406 C 34.898438 89.480469 35.597656 87.910156 36.332031 86.355469 C 37.066406 84.804688 37.839844 83.269531 38.648438 81.753906 C 39.457031 80.238281 40.304688 78.742188 41.1875 77.269531 C 42.070312 75.796875 42.992188 74.34375 43.945312 72.914062 C 44.898438 71.484375 45.890625 70.082031 46.914062 68.703125 C 47.9375 67.320312 48.992188 65.96875 50.082031 64.640625 C 51.175781 63.308594 52.296875 62.007812 53.449219 60.734375 C 54.605469 59.464844 55.789062 58.21875 57.003906 57.003906 C 58.21875 55.789062 59.464844 54.605469 60.734375 53.449219 C 62.007812 52.296875 63.308594 51.175781 64.640625 50.082031 C 65.96875 48.992188 67.320312 47.9375 68.703125 46.914062 C 70.082031 45.890625 71.484375 44.898438 72.914062 43.945312 C 74.34375 42.992188 75.796875 42.070312 77.269531 41.1875 C 78.742188 40.304688 80.238281 39.457031 81.753906 38.648438 C 83.269531 37.839844 84.804688 37.066406 86.355469 36.332031 C 87.910156 35.597656 89.480469 34.898438 91.066406 34.242188 C 92.65625 33.585938 94.257812 32.964844 95.875 32.386719 C 97.496094 31.808594 99.125 31.269531 100.769531 30.769531 C 102.414062 30.273438 104.070312 29.8125 105.738281 29.398438 C 107.402344 28.980469 109.082031 28.601562 110.765625 28.265625 C 112.449219 27.933594 114.144531 27.636719 115.84375 27.386719 C 117.542969 27.132812 119.25 26.925781 120.957031 26.753906 C 122.667969 26.585938 124.382812 26.460938 126.097656 26.375 C 127.8125 26.292969 129.53125 26.25 131.25 26.25 C 132.96875 26.25 134.6875 26.292969 136.402344 26.375 C 138.117188 26.460938 139.832031 26.585938 141.542969 26.753906 C 143.25 26.925781 144.957031 27.132812 146.65625 27.386719 C 148.355469 27.636719 150.050781 27.933594 151.734375 28.265625 C 153.417969 28.601562 155.097656 28.980469 156.761719 29.398438 C 158.429688 29.8125 160.085938 30.273438 161.730469 30.769531 C 163.375 31.269531 165.003906 31.808594 166.625 32.386719 C 168.242188 32.964844 169.84375 33.585938 171.433594 34.242188 C 173.019531 34.898438 174.589844 35.597656 176.144531 36.332031 C 177.695312 37.066406 179.230469 37.839844 180.746094 38.648438 C 182.261719 39.457031 183.757812 40.304688 185.230469 41.1875 C 186.703125 42.070312 188.15625 42.992188 189.585938 43.945312 C 191.011719 44.898438 192.417969 45.890625 193.796875 46.914062 C 195.179688 47.9375 196.53125 48.992188 197.859375 50.082031 C 199.191406 51.175781 200.492188 52.296875 201.761719 53.449219 C 203.035156 54.605469 204.28125 55.789062 205.496094 57.003906 C 206.710938 58.21875 207.894531 59.464844 209.050781 60.734375 C 210.203125 62.007812 211.324219 63.308594 212.417969 64.640625 C 213.507812 65.96875 214.5625 67.320312 215.585938 68.703125 C 216.609375 70.082031 217.597656 71.484375 218.554688 72.914062 C 219.507812 74.34375 220.429688 75.796875 221.3125 77.269531 C 222.195312 78.742188 223.042969 80.238281 223.851562 81.753906 C 224.660156 83.269531 225.433594 84.804688 226.167969 86.355469 C 226.902344 87.910156 227.601562 89.480469 228.257812 91.066406 C 228.914062 92.65625 229.53125 94.257812 230.113281 95.875 C 230.691406 97.496094 231.230469 99.125 231.730469 100.769531 C 232.226562 102.414062 232.6875 104.070312 233.101562 105.738281 C 233.519531 107.402344 233.898438 109.082031 234.230469 110.765625 C 234.566406 112.449219 234.863281 114.144531 235.113281 115.84375 C 235.367188 117.542969 235.574219 119.25 235.746094 120.957031 C 235.914062 122.667969 236.039062 124.382812 236.125 126.097656 C 236.207031 127.8125 236.25 129.53125 236.25 131.25 C 236.246094 132.96875 236.203125 134.683594 236.117188 136.398438 C 236.03125 138.117188 235.902344 139.828125 235.734375 141.539062 C 235.5625 143.246094 235.351562 144.953125 235.097656 146.652344 C 234.84375 148.351562 234.550781 150.042969 234.210938 151.726562 C 233.875 153.410156 233.5 155.085938 233.078125 156.75 C 232.660156 158.417969 232.203125 160.074219 231.703125 161.714844 C 231.203125 163.359375 230.660156 164.988281 230.082031 166.605469 C 229.503906 168.222656 228.882812 169.824219 228.226562 171.414062 C 227.566406 173 226.871094 174.570312 226.132812 176.121094 C 225.398438 177.675781 224.625 179.207031 223.816406 180.722656 C 223.003906 182.238281 222.160156 183.730469 221.273438 185.203125 C 220.390625 186.675781 219.472656 188.128906 218.515625 189.554688 C 217.5625 190.984375 216.574219 192.386719 215.550781 193.769531 C 214.527344 195.148438 213.46875 196.5 212.378906 197.828125 C 211.289062 199.15625 210.167969 200.457031 209.011719 201.730469 C 207.859375 203.003906 206.675781 204.246094 205.460938 205.460938 C 204.246094 206.675781 203.003906 207.859375 201.730469 209.011719 C 200.457031 210.167969 199.15625 211.289062 197.828125 212.378906 C 196.5 213.46875 195.148438 214.527344 193.769531 215.550781 C 192.386719 216.574219 190.984375 217.5625 189.554688 218.515625 C 188.128906 219.472656 186.675781 220.390625 185.203125 221.273438 C 183.730469 222.160156 182.238281 223.003906 180.722656 223.816406 C 179.207031 224.625 177.675781 225.398438 176.121094 226.132812 C 174.570312 226.871094 173 227.566406 171.414062 228.226562 C 169.824219 228.882812 168.222656 229.503906 166.605469 230.082031 C 164.988281 230.660156 163.359375 231.203125 161.714844 231.703125 C 160.074219 232.203125 158.417969 232.660156 156.75 233.078125 C 155.085938 233.496094 153.410156 233.875 151.726562 234.210938 C 150.042969 234.550781 148.351562 234.84375 146.652344 235.097656 C 144.953125 235.351562 143.246094 235.5625 141.539062 235.734375 C 139.828125 235.902344 138.117188 236.03125 136.398438 236.117188 C 134.683594 236.203125 132.96875 236.246094 131.25 236.25 Z M 81.84375 211.136719 C 83.6875 212.28125 85.570312 213.355469 87.488281 214.367188 C 89.40625 215.378906 91.359375 216.324219 93.34375 217.199219 C 95.324219 218.074219 97.339844 218.882812 99.378906 219.617188 C 101.417969 220.355469 103.480469 221.019531 105.566406 221.613281 C 107.652344 222.207031 109.757812 222.730469 111.878906 223.175781 C 114 223.625 116.136719 223.996094 118.285156 224.296875 C 120.433594 224.597656 122.585938 224.820312 124.75 224.972656 C 126.914062 225.121094 129.082031 225.199219 131.25 225.199219 C 133.417969 225.199219 135.585938 225.121094 137.75 224.972656 C 139.914062 224.820312 142.066406 224.597656 144.214844 224.296875 C 146.363281 223.996094 148.5 223.625 150.621094 223.175781 C 152.742188 222.730469 154.847656 222.207031 156.933594 221.613281 C 159.019531 221.019531 161.082031 220.355469 163.121094 219.617188 C 165.160156 218.882812 167.175781 218.074219 169.15625 217.199219 C 171.140625 216.324219 173.09375 215.378906 175.011719 214.367188 C 176.929688 213.355469 178.8125 212.28125 180.65625 211.136719 C 177.949219 197.398438 165.511719 146.390625 131.25 146.390625 C 96.988281 146.390625 84.550781 197.398438 81.84375 211.136719 Z M 151.222656 140.09375 C 176.113281 152.746094 186.746094 187.617188 190.492188 204.140625 C 191.738281 203.128906 192.957031 202.085938 194.148438 201.011719 C 195.339844 199.9375 196.503906 198.832031 197.640625 197.699219 C 198.773438 196.566406 199.882812 195.402344 200.957031 194.210938 C 202.03125 193.023438 203.078125 191.804688 204.089844 190.558594 C 205.105469 189.316406 206.085938 188.046875 207.035156 186.75 C 207.984375 185.457031 208.898438 184.140625 209.777344 182.796875 C 210.660156 181.457031 211.503906 180.09375 212.316406 178.707031 C 213.128906 177.324219 213.902344 175.917969 214.640625 174.496094 C 215.378906 173.070312 216.082031 171.628906 216.746094 170.167969 C 217.414062 168.707031 218.039062 167.230469 218.628906 165.738281 C 219.21875 164.246094 219.769531 162.738281 220.28125 161.21875 C 220.792969 159.695312 221.265625 158.164062 221.703125 156.617188 C 222.136719 155.074219 222.527344 153.519531 222.882812 151.953125 C 223.238281 150.386719 223.550781 148.8125 223.824219 147.234375 C 224.097656 145.652344 224.332031 144.0625 224.523438 142.472656 C 224.714844 140.878906 224.867188 139.28125 224.976562 137.679688 C 225.085938 136.078125 225.15625 134.476562 225.183594 132.871094 C 225.210938 131.265625 225.199219 129.664062 225.144531 128.058594 C 225.089844 126.453125 224.996094 124.851562 224.859375 123.253906 C 224.722656 121.65625 224.546875 120.058594 224.328125 118.46875 C 224.109375 116.878906 223.851562 115.296875 223.550781 113.71875 C 223.253906 112.144531 222.914062 110.574219 222.535156 109.015625 C 222.15625 107.457031 221.734375 105.910156 221.277344 104.371094 C 220.816406 102.832031 220.320312 101.308594 219.78125 99.796875 C 219.246094 98.28125 218.671875 96.785156 218.058594 95.300781 C 217.445312 93.820312 216.792969 92.355469 216.101562 90.902344 C 215.414062 89.453125 214.6875 88.023438 213.925781 86.613281 C 213.164062 85.199219 212.367188 83.808594 211.535156 82.4375 C 210.699219 81.066406 209.832031 79.714844 208.929688 78.386719 C 208.027344 77.0625 207.089844 75.757812 206.121094 74.480469 C 205.152344 73.199219 204.152344 71.949219 203.117188 70.71875 C 202.082031 69.492188 201.019531 68.292969 199.925781 67.117188 C 198.828125 65.945312 197.703125 64.800781 196.550781 63.6875 C 195.398438 62.570312 194.214844 61.484375 193.007812 60.429688 C 191.796875 59.375 190.5625 58.351562 189.300781 57.359375 C 188.039062 56.367188 186.75 55.410156 185.441406 54.484375 C 184.128906 53.558594 182.796875 52.667969 181.4375 51.808594 C 180.082031 50.953125 178.703125 50.128906 177.304688 49.34375 C 175.90625 48.558594 174.488281 47.808594 173.050781 47.09375 C 171.613281 46.378906 170.160156 45.703125 168.6875 45.0625 C 167.214844 44.421875 165.730469 43.820312 164.226562 43.257812 C 162.722656 42.695312 161.207031 42.171875 159.675781 41.683594 C 158.148438 41.199219 156.605469 40.753906 155.054688 40.347656 C 153.503906 39.941406 151.941406 39.574219 150.367188 39.246094 C 148.796875 38.921875 147.21875 38.632812 145.632812 38.386719 C 144.046875 38.140625 142.457031 37.9375 140.859375 37.773438 C 139.261719 37.609375 137.664062 37.484375 136.0625 37.402344 C 134.457031 37.320312 132.855469 37.28125 131.25 37.28125 C 129.644531 37.28125 128.042969 37.320312 126.4375 37.402344 C 124.835938 37.484375 123.238281 37.609375 121.640625 37.773438 C 120.042969 37.9375 118.453125 38.140625 116.867188 38.386719 C 115.28125 38.632812 113.703125 38.921875 112.132812 39.246094 C 110.558594 39.574219 108.996094 39.941406 107.445312 40.347656 C 105.894531 40.753906 104.351562 41.199219 102.824219 41.683594 C 101.292969 42.171875 99.777344 42.695312 98.273438 43.257812 C 96.769531 43.820312 95.285156 44.421875 93.8125 45.0625 C 92.339844 45.703125 90.886719 46.378906 89.449219 47.09375 C 88.011719 47.808594 86.59375 48.558594 85.195312 49.34375 C 83.796875 50.128906 82.417969 50.953125 81.0625 51.808594 C 79.703125 52.667969 78.371094 53.558594 77.058594 54.484375 C 75.75 55.410156 74.460938 56.367188 73.199219 57.359375 C 71.9375 58.351562 70.703125 59.375 69.492188 60.429688 C 68.285156 61.484375 67.101562 62.570312 65.949219 63.6875 C 64.796875 64.800781 63.671875 65.945312 62.574219 67.117188 C 61.480469 68.292969 60.417969 69.492188 59.382812 70.71875 C 58.347656 71.949219 57.347656 73.199219 56.378906 74.480469 C 55.410156 75.757812 54.472656 77.0625 53.570312 78.386719 C 52.667969 79.714844 51.800781 81.066406 50.964844 82.4375 C 50.132812 83.808594 49.335938 85.199219 48.574219 86.613281 C 47.8125 88.023438 47.085938 89.453125 46.398438 90.902344 C 45.707031 92.355469 45.054688 93.820312 44.441406 95.300781 C 43.828125 96.785156 43.253906 98.28125 42.71875 99.796875 C 42.179688 101.308594 41.683594 102.832031 41.222656 104.371094 C 40.765625 105.910156 40.34375 107.457031 39.964844 109.015625 C 39.585938 110.574219 39.246094 112.144531 38.949219 113.71875 C 38.648438 115.296875 38.390625 116.878906 38.171875 118.46875 C 37.953125 120.058594 37.777344 121.65625 37.640625 123.253906 C 37.503906 124.851562 37.410156 126.453125 37.355469 128.058594 C 37.300781 129.664062 37.289062 131.265625 37.316406 132.871094 C 37.34375 134.476562 37.414062 136.078125 37.523438 137.679688 C 37.632812 139.28125 37.785156 140.878906 37.976562 142.472656 C 38.167969 144.0625 38.402344 145.652344 38.675781 147.234375 C 38.949219 148.8125 39.261719 150.386719 39.617188 151.953125 C 39.972656 153.519531 40.363281 155.074219 40.796875 156.617188 C 41.234375 158.164062 41.707031 159.695312 42.21875 161.21875 C 42.730469 162.738281 43.28125 164.246094 43.871094 165.738281 C 44.460938 167.230469 45.085938 168.707031 45.753906 170.167969 C 46.417969 171.628906 47.121094 173.070312 47.859375 174.496094 C 48.597656 175.917969 49.371094 177.324219 50.183594 178.707031 C 50.996094 180.09375 51.839844 181.457031 52.722656 182.796875 C 53.601562 184.140625 54.515625 185.457031 55.464844 186.75 C 56.414062 188.046875 57.394531 189.316406 58.410156 190.558594 C 59.421875 191.804688 60.46875 193.023438 61.542969 194.210938 C 62.617188 195.402344 63.726562 196.566406 64.859375 197.699219 C 65.996094 198.832031 67.160156 199.9375 68.351562 201.011719 C 69.542969 202.085938 70.761719 203.128906 72.007812 204.140625 C 75.753906 187.652344 86.375 152.746094 111.277344 140.09375 C 110.28125 139.390625 109.324219 138.636719 108.402344 137.835938 C 107.484375 137.03125 106.613281 136.183594 105.785156 135.289062 C 104.953125 134.390625 104.175781 133.457031 103.445312 132.480469 C 102.714844 131.5 102.039062 130.488281 101.414062 129.441406 C 100.792969 128.390625 100.226562 127.3125 99.714844 126.203125 C 99.207031 125.097656 98.757812 123.964844 98.367188 122.808594 C 97.976562 121.652344 97.648438 120.480469 97.382812 119.289062 C 97.117188 118.097656 96.914062 116.898438 96.773438 115.683594 C 96.632812 114.472656 96.558594 113.257812 96.546875 112.039062 C 96.535156 110.816406 96.585938 109.601562 96.703125 108.386719 C 96.820312 107.171875 97 105.96875 97.246094 104.773438 C 97.488281 103.578125 97.796875 102.398438 98.164062 101.234375 C 98.53125 100.070312 98.960938 98.933594 99.449219 97.8125 C 99.9375 96.695312 100.480469 95.605469 101.085938 94.546875 C 101.6875 93.488281 102.347656 92.460938 103.058594 91.46875 C 103.769531 90.480469 104.53125 89.527344 105.34375 88.617188 C 106.152344 87.707031 107.011719 86.839844 107.914062 86.019531 C 108.816406 85.199219 109.761719 84.429688 110.746094 83.710938 C 111.730469 82.988281 112.75 82.320312 113.800781 81.707031 C 114.855469 81.09375 115.941406 80.539062 117.054688 80.039062 C 118.167969 79.542969 119.304688 79.101562 120.464844 78.722656 C 121.621094 78.34375 122.796875 78.027344 123.992188 77.773438 C 125.183594 77.515625 126.386719 77.324219 127.601562 77.195312 C 128.8125 77.070312 130.03125 77.003906 131.25 77.003906 C 132.46875 77.003906 133.6875 77.070312 134.898438 77.195312 C 136.113281 77.324219 137.316406 77.515625 138.507812 77.773438 C 139.703125 78.027344 140.878906 78.34375 142.035156 78.722656 C 143.195312 79.101562 144.332031 79.542969 145.445312 80.039062 C 146.558594 80.539062 147.644531 81.09375 148.695312 81.707031 C 149.75 82.320312 150.769531 82.988281 151.753906 83.710938 C 152.738281 84.429688 153.683594 85.199219 154.585938 86.019531 C 155.488281 86.839844 156.347656 87.707031 157.15625 88.617188 C 157.96875 89.527344 158.730469 90.480469 159.441406 91.46875 C 160.152344 92.460938 160.8125 93.488281 161.414062 94.546875 C 162.019531 95.605469 162.5625 96.695312 163.050781 97.8125 C 163.539062 98.929688 163.96875 100.070312 164.335938 101.234375 C 164.703125 102.398438 165.011719 103.578125 165.253906 104.773438 C 165.5 105.96875 165.679688 107.171875 165.796875 108.386719 C 165.914062 109.601562 165.964844 110.816406 165.953125 112.039062 C 165.941406 113.257812 165.867188 114.472656 165.726562 115.683594 C 165.585938 116.898438 165.382812 118.097656 165.117188 119.289062 C 164.851562 120.480469 164.523438 121.652344 164.132812 122.808594 C 163.742188 123.964844 163.292969 125.097656 162.785156 126.203125 C 162.273438 127.3125 161.707031 128.390625 161.085938 129.441406 C 160.460938 130.488281 159.785156 131.5 159.054688 132.480469 C 158.324219 133.457031 157.546875 134.390625 156.714844 135.289062 C 155.886719 136.183594 155.015625 137.03125 154.097656 137.835938 C 153.175781 138.636719 152.21875 139.390625 151.222656 140.09375 Z M 131.25 88.035156 C 130.476562 88.035156 129.703125 88.070312 128.929688 88.148438 C 128.160156 88.222656 127.394531 88.335938 126.636719 88.488281 C 125.875 88.640625 125.125 88.828125 124.382812 89.050781 C 123.644531 89.277344 122.914062 89.539062 122.199219 89.835938 C 121.484375 90.132812 120.785156 90.460938 120.101562 90.828125 C 119.417969 91.191406 118.753906 91.589844 118.109375 92.019531 C 117.464844 92.449219 116.84375 92.910156 116.246094 93.402344 C 115.644531 93.894531 115.074219 94.414062 114.523438 94.960938 C 113.976562 95.507812 113.457031 96.082031 112.964844 96.683594 C 112.476562 97.28125 112.015625 97.902344 111.582031 98.546875 C 111.152344 99.191406 110.753906 99.855469 110.390625 100.535156 C 110.023438 101.21875 109.695312 101.917969 109.398438 102.636719 C 109.101562 103.351562 108.839844 104.078125 108.617188 104.820312 C 108.390625 105.5625 108.203125 106.3125 108.050781 107.074219 C 107.902344 107.832031 107.789062 108.597656 107.710938 109.367188 C 107.636719 110.140625 107.597656 110.914062 107.597656 111.6875 C 107.597656 112.460938 107.636719 113.234375 107.710938 114.003906 C 107.789062 114.777344 107.902344 115.542969 108.050781 116.300781 C 108.203125 117.0625 108.390625 117.8125 108.617188 118.554688 C 108.839844 119.292969 109.101562 120.023438 109.398438 120.738281 C 109.695312 121.453125 110.023438 122.152344 110.390625 122.835938 C 110.753906 123.519531 111.152344 124.183594 111.582031 124.828125 C 112.015625 125.472656 112.476562 126.09375 112.964844 126.691406 C 113.457031 127.289062 113.976562 127.863281 114.523438 128.410156 C 115.074219 128.960938 115.644531 129.480469 116.246094 129.96875 C 116.84375 130.460938 117.464844 130.921875 118.109375 131.351562 C 118.753906 131.785156 119.417969 132.179688 120.101562 132.546875 C 120.785156 132.910156 121.484375 133.242188 122.199219 133.539062 C 122.914062 133.835938 123.644531 134.097656 124.382812 134.320312 C 125.125 134.546875 125.875 134.734375 126.636719 134.886719 C 127.394531 135.035156 128.160156 135.148438 128.929688 135.226562 C 129.703125 135.300781 130.476562 135.339844 131.25 135.339844 C 132.023438 135.339844 132.796875 135.300781 133.566406 135.226562 C 134.339844 135.148438 135.105469 135.035156 135.863281 134.886719 C 136.625 134.734375 137.375 134.546875 138.117188 134.320312 C 138.855469 134.097656 139.585938 133.835938 140.300781 133.539062 C 141.015625 133.242188 141.714844 132.910156 142.398438 132.546875 C 143.082031 132.179688 143.746094 131.785156 144.390625 131.351562 C 145.035156 130.921875 145.65625 130.460938 146.253906 129.96875 C 146.855469 129.480469 147.425781 128.960938 147.976562 128.410156 C 148.523438 127.863281 149.042969 127.289062 149.535156 126.691406 C 150.023438 126.09375 150.484375 125.472656 150.917969 124.828125 C 151.347656 124.183594 151.746094 123.519531 152.109375 122.835938 C 152.476562 122.152344 152.804688 121.453125 153.101562 120.738281 C 153.398438 120.023438 153.660156 119.292969 153.882812 118.554688 C 154.109375 117.8125 154.296875 117.0625 154.449219 116.300781 C 154.597656 115.542969 154.710938 114.777344 154.789062 114.003906 C 154.863281 113.234375 154.902344 112.460938 154.902344 111.6875 C 154.902344 110.914062 154.863281 110.140625 154.785156 109.371094 C 154.710938 108.597656 154.597656 107.832031 154.445312 107.074219 C 154.292969 106.316406 154.105469 105.5625 153.878906 104.824219 C 153.652344 104.082031 153.394531 103.355469 153.097656 102.640625 C 152.800781 101.921875 152.46875 101.222656 152.101562 100.542969 C 151.738281 99.859375 151.339844 99.195312 150.910156 98.550781 C 150.480469 97.90625 150.019531 97.285156 149.527344 96.6875 C 149.035156 96.089844 148.515625 95.515625 147.96875 94.96875 C 147.421875 94.421875 146.847656 93.902344 146.25 93.410156 C 145.652344 92.917969 145.03125 92.457031 144.386719 92.027344 C 143.742188 91.597656 143.078125 91.199219 142.394531 90.832031 C 141.710938 90.46875 141.011719 90.136719 140.296875 89.839844 C 139.582031 89.542969 138.855469 89.28125 138.113281 89.058594 C 137.371094 88.832031 136.621094 88.644531 135.863281 88.492188 C 135.101562 88.339844 134.339844 88.226562 133.566406 88.148438 C 132.796875 88.074219 132.023438 88.035156 131.25 88.035156 Z M 131.25 88.035156 " fill-opacity="1" fill-rule="nonzero"/></g></svg>