<svg xmlns="http://www.w3.org/2000/svg" xmlns:xlink="http://www.w3.org/1999/xlink" width="350" zoomAndPan="magnify" viewBox="0 0 262.5 262.500001" height="350" preserveAspectRatio="xMidYMid meet" version="1.0"><defs><clipPath id="id1"><path d="M 26.25 26.25 L 236.25 26.25 L 236.25 236.25 L 26.25 236.25 Z M 26.25 26.25 " clip-rule="nonzero"/></clipPath></defs><g clip-path="url(#id1)"><path fill="#000000" d="M 131.25 26.25 C 129.53125 26.25 127.8125 26.292969 126.097656 26.375 C 124.382812 26.460938 122.667969 26.585938 120.957031 26.753906 C 119.25 26.925781 117.542969 27.132812 115.84375 27.386719 C 114.144531 27.636719 112.449219 27.933594 110.765625 28.265625 C 109.082031 28.601562 107.402344 28.980469 105.738281 29.398438 C 104.070312 29.8125 102.414062 30.273438 100.769531 30.769531 C 99.125 31.269531 97.496094 31.808594 95.875 32.386719 C 94.257812 32.964844 92.65625 33.585938 91.066406 34.242188 C 89.480469 34.898438 87.910156 35.597656 86.355469 36.332031 C 84.804688 37.066406 83.269531 37.839844 81.753906 38.648438 C 80.238281 39.457031 78.742188 40.304688 77.269531 41.1875 C 75.796875 42.070312 74.34375 42.992188 72.914062 43.945312 C 71.484375 44.898438 70.082031 45.890625 68.703125 46.914062 C 67.320312 47.9375 65.96875 48.992188 64.640625 50.082031 C 63.308594 51.175781 62.007812 52.296875 60.734375 53.449219 C 59.464844 54.605469 58.21875 55.789062 57.003906 57.003906 C 55.789062 58.21875 54.605469 59.464844 53.449219 60.734375 C 52.296875 62.007812 51.175781 63.308594 50.082031 64.640625 C 48.992188 65.96875 47.9375 67.320312 46.914062 68.703125 C 45.890625 70.082031 44.898438 71.484375 43.945312 72.914062 C 42.992188 74.34375 42.070312 75.796875 41.1875 77.269531 C 40.304688 78.742188 39.457031 80.238281 38.648438 81.753906 C 37.839844 83.269531 37.066406 84.804688 36.332031 86.355469 C 35.597656 87.910156 34.898438 89.480469 34.242188 91.066406 C 33.585938 92.65625 32.964844 94.257812 32.386719 95.875 C 31.808594 97.496094 31.269531 99.125 30.769531 100.769531 C 30.273438 102.414062 29.8125 104.070312 29.398438 105.738281 C 28.980469 107.402344 28.601562 109.082031 28.265625 110.765625 C 27.933594 112.449219 27.636719 114.144531 27.386719 115.84375 C 27.132812 117.542969 26.925781 119.25 26.753906 120.957031 C 26.585938 122.667969 26.460938 124.382812 26.375 126.097656 C 26.292969 127.8125 26.25 129.53125 26.25 131.25 C 26.25 132.96875 26.292969 134.6875 26.375 136.402344 C 26.460938 138.117188 26.585938 139.832031 26.753906 141.542969 C 26.925781 143.25 27.132812 144.957031 27.386719 146.65625 C 27.636719 148.355469 27.933594 150.050781 28.265625 151.734375 C 28.601562 153.417969 28.980469 155.097656 29.398438 156.761719 C 29.8125 158.429688 30.273438 160.085938 30.769531 161.730469 C 31.269531 163.375 31.808594 165.003906 32.386719 166.625 C 32.964844 168.242188 33.585938 169.84375 34.242188 171.433594 C 34.898438 173.019531 35.597656 174.589844 36.332031 176.144531 C 37.066406 177.695312 37.839844 179.230469 38.648438 180.746094 C 39.457031 182.261719 40.304688 183.757812 41.1875 185.230469 C 42.070312 186.703125 42.992188 188.15625 43.945312 189.585938 C 44.898438 191.011719 45.890625 192.417969 46.914062 193.796875 C 47.9375 195.179688 48.992188 196.53125 50.082031 197.859375 C 51.175781 199.191406 52.296875 200.492188 53.449219 201.761719 C 54.605469 203.035156 55.789062 204.28125 57.003906 205.496094 C 58.21875 206.710938 59.464844 207.894531 60.734375 209.050781 C 62.007812 210.203125 63.308594 211.324219 64.640625 212.417969 C 65.96875 213.507812 67.320312 214.5625 68.703125 215.585938 C 70.082031 216.609375 71.484375 217.597656 72.914062 218.554688 C 74.34375 219.507812 75.796875 220.429688 77.269531 221.3125 C 78.742188 222.195312 80.238281 223.042969 81.753906 223.851562 C 83.269531 224.660156 84.804688 225.433594 86.355469 226.167969 C 87.910156 226.902344 89.480469 227.601562 91.066406 228.257812 C 92.65625 228.914062 94.257812 229.53125 95.875 230.113281 C 97.496094 230.691406 99.125 231.230469 100.769531 231.730469 C 102.414062 232.226562 104.070312 232.6875 105.738281 233.101562 C 107.402344 233.519531 109.082031 233.898438 110.765625 234.234375 C 112.449219 234.566406 114.144531 234.863281 115.84375 235.113281 C 117.542969 235.367188 119.246094 235.574219 120.957031 235.746094 C 122.667969 235.914062 124.382812 236.039062 126.097656 236.125 C 127.8125 236.207031 129.53125 236.25 131.25 236.25 C 132.96875 236.25 134.6875 236.207031 136.402344 236.125 C 138.117188 236.039062 139.832031 235.914062 141.542969 235.746094 C 143.25 235.574219 144.957031 235.367188 146.65625 235.113281 C 148.355469 234.863281 150.050781 234.566406 151.734375 234.234375 C 153.417969 233.898438 155.097656 233.519531 156.761719 233.101562 C 158.429688 232.6875 160.085938 232.226562 161.730469 231.730469 C 163.375 231.230469 165.003906 230.691406 166.625 230.113281 C 168.242188 229.53125 169.84375 228.914062 171.433594 228.257812 C 173.019531 227.601562 174.589844 226.902344 176.144531 226.167969 C 177.695312 225.433594 179.230469 224.660156 180.746094 223.851562 C 182.261719 223.042969 183.757812 222.195312 185.230469 221.3125 C 186.703125 220.429688 188.15625 219.507812 189.585938 218.554688 C 191.011719 217.597656 192.417969 216.609375 193.796875 215.585938 C 195.179688 214.5625 196.53125 213.507812 197.859375 212.417969 C 199.191406 211.324219 200.492188 210.203125 201.761719 209.050781 C 203.035156 207.894531 204.28125 206.710938 205.496094 205.496094 C 206.710938 204.28125 207.894531 203.035156 209.050781 201.761719 C 210.203125 200.492188 211.324219 199.191406 212.417969 197.859375 C 213.507812 196.53125 214.5625 195.179688 215.585938 193.796875 C 216.609375 192.417969 217.597656 191.011719 218.554688 189.585938 C 219.507812 188.15625 220.429688 186.703125 221.3125 185.230469 C 222.195312 183.757812 223.042969 182.261719 223.851562 180.746094 C 224.660156 179.230469 225.433594 177.695312 226.167969 176.144531 C 226.902344 174.589844 227.601562 173.019531 228.257812 171.433594 C 228.914062 169.84375 229.53125 168.242188 230.113281 166.625 C 230.691406 165.003906 231.230469 163.375 231.730469 161.730469 C 232.226562 160.085938 232.6875 158.429688 233.101562 156.761719 C 233.519531 155.097656 233.898438 153.417969 234.234375 151.734375 C 234.566406 150.050781 234.863281 148.355469 235.113281 146.65625 C 235.367188 144.957031 235.574219 143.25 235.746094 141.542969 C 235.914062 139.832031 236.039062 138.117188 236.125 136.402344 C 236.207031 134.6875 236.25 132.96875 236.25 131.25 C 236.25 129.53125 236.207031 127.816406 236.121094 126.097656 C 236.035156 124.382812 235.910156 122.667969 235.738281 120.960938 C 235.570312 119.25 235.359375 117.546875 235.105469 115.847656 C 234.855469 114.144531 234.558594 112.453125 234.222656 110.769531 C 233.886719 109.082031 233.511719 107.40625 233.09375 105.742188 C 232.675781 104.074219 232.214844 102.417969 231.71875 100.777344 C 231.21875 99.132812 230.679688 97.5 230.097656 95.882812 C 229.519531 94.265625 228.902344 92.664062 228.242188 91.074219 C 227.585938 89.488281 226.890625 87.917969 226.15625 86.367188 C 225.417969 84.8125 224.648438 83.277344 223.835938 81.761719 C 223.027344 80.25 222.179688 78.753906 221.296875 77.28125 C 220.414062 75.808594 219.492188 74.355469 218.539062 72.925781 C 217.585938 71.5 216.59375 70.09375 215.570312 68.714844 C 214.546875 67.335938 213.492188 65.980469 212.402344 64.652344 C 211.308594 63.324219 210.1875 62.023438 209.035156 60.75 C 207.878906 59.476562 206.695312 58.234375 205.480469 57.019531 C 204.265625 55.804688 203.023438 54.621094 201.75 53.464844 C 200.476562 52.3125 199.175781 51.191406 197.847656 50.097656 C 196.519531 49.007812 195.164062 47.953125 193.785156 46.929688 C 192.40625 45.90625 191 44.914062 189.574219 43.960938 C 188.144531 43.007812 186.691406 42.085938 185.21875 41.203125 C 183.746094 40.320312 182.25 39.472656 180.738281 38.664062 C 179.222656 37.851562 177.6875 37.082031 176.132812 36.34375 C 174.582031 35.609375 173.011719 34.914062 171.425781 34.257812 C 169.835938 33.597656 168.234375 32.980469 166.617188 32.402344 C 165 31.820312 163.367188 31.28125 161.722656 30.78125 C 160.082031 30.285156 158.425781 29.824219 156.757812 29.40625 C 155.089844 28.988281 153.414062 28.613281 151.730469 28.277344 C 150.046875 27.941406 148.355469 27.644531 146.652344 27.394531 C 144.953125 27.140625 143.25 26.929688 141.539062 26.761719 C 139.832031 26.589844 138.117188 26.464844 136.402344 26.378906 C 134.683594 26.292969 132.96875 26.25 131.25 26.25 Z M 131.25 229.007812 C 129.648438 229.007812 128.050781 228.96875 126.453125 228.890625 C 124.855469 228.8125 123.261719 228.695312 121.667969 228.539062 C 120.074219 228.382812 118.488281 228.183594 116.90625 227.949219 C 115.324219 227.714844 113.746094 227.441406 112.179688 227.128906 C 110.609375 226.816406 109.046875 226.46875 107.496094 226.078125 C 105.945312 225.691406 104.402344 225.261719 102.871094 224.800781 C 101.339844 224.335938 99.824219 223.832031 98.316406 223.292969 C 96.808594 222.753906 95.316406 222.179688 93.839844 221.566406 C 92.359375 220.953125 90.898438 220.308594 89.453125 219.621094 C 88.007812 218.9375 86.578125 218.21875 85.167969 217.464844 C 83.757812 216.710938 82.363281 215.921875 80.992188 215.101562 C 79.621094 214.277344 78.269531 213.421875 76.9375 212.535156 C 75.609375 211.644531 74.300781 210.722656 73.015625 209.769531 C 71.730469 208.816406 70.46875 207.832031 69.234375 206.820312 C 67.996094 205.804688 66.785156 204.757812 65.597656 203.683594 C 64.414062 202.609375 63.253906 201.507812 62.125 200.375 C 60.992188 199.246094 59.890625 198.085938 58.816406 196.902344 C 57.742188 195.714844 56.695312 194.503906 55.679688 193.265625 C 54.667969 192.03125 53.683594 190.769531 52.730469 189.484375 C 51.777344 188.199219 50.855469 186.890625 49.964844 185.5625 C 49.078125 184.230469 48.222656 182.878906 47.398438 181.507812 C 46.578125 180.136719 45.789062 178.742188 45.035156 177.332031 C 44.28125 175.921875 43.5625 174.492188 42.878906 173.046875 C 42.191406 171.601562 41.546875 170.140625 40.933594 168.660156 C 40.320312 167.183594 39.746094 165.691406 39.207031 164.183594 C 38.667969 162.675781 38.164062 161.160156 37.699219 159.628906 C 37.238281 158.097656 36.808594 156.554688 36.421875 155.003906 C 36.03125 153.453125 35.683594 151.890625 35.371094 150.320312 C 35.058594 148.753906 34.785156 147.175781 34.550781 145.59375 C 34.316406 144.011719 34.117188 142.425781 33.960938 140.832031 C 33.804688 139.238281 33.6875 137.644531 33.609375 136.046875 C 33.53125 134.449219 33.492188 132.851562 33.492188 131.25 C 33.492188 129.648438 33.53125 128.050781 33.609375 126.453125 C 33.6875 124.855469 33.804688 123.261719 33.960938 121.667969 C 34.117188 120.074219 34.316406 118.488281 34.550781 116.90625 C 34.785156 115.324219 35.058594 113.746094 35.371094 112.179688 C 35.683594 110.609375 36.03125 109.046875 36.421875 107.496094 C 36.808594 105.945312 37.238281 104.402344 37.699219 102.871094 C 38.164062 101.339844 38.667969 99.824219 39.207031 98.316406 C 39.746094 96.808594 40.320312 95.316406 40.933594 93.839844 C 41.546875 92.359375 42.191406 90.898438 42.878906 89.453125 C 43.5625 88.007812 44.28125 86.578125 45.035156 85.167969 C 45.789062 83.757812 46.578125 82.363281 47.398438 80.992188 C 48.222656 79.621094 49.078125 78.269531 49.964844 76.9375 C 50.855469 75.609375 51.777344 74.300781 52.730469 73.015625 C 53.683594 71.730469 54.667969 70.46875 55.679688 69.234375 C 56.695312 67.996094 57.742188 66.785156 58.816406 65.597656 C 59.890625 64.414062 60.992188 63.253906 62.125 62.125 C 63.253906 60.992188 64.414062 59.890625 65.597656 58.816406 C 66.785156 57.742188 67.996094 56.695312 69.234375 55.679688 C 70.46875 54.667969 71.730469 53.683594 73.015625 52.730469 C 74.300781 51.777344 75.609375 50.855469 76.9375 49.964844 C 78.269531 49.078125 79.621094 48.222656 80.992188 47.398438 C 82.363281 46.578125 83.757812 45.789062 85.167969 45.035156 C 86.578125 44.28125 88.007812 43.5625 89.453125 42.878906 C 90.898438 42.191406 92.359375 41.546875 93.839844 40.933594 C 95.316406 40.320312 96.808594 39.746094 98.316406 39.207031 C 99.824219 38.667969 101.339844 38.164062 102.871094 37.699219 C 104.402344 37.238281 105.945312 36.808594 107.496094 36.421875 C 109.046875 36.03125 110.609375 35.683594 112.179688 35.371094 C 113.746094 35.058594 115.324219 34.785156 116.90625 34.550781 C 118.488281 34.316406 120.074219 34.117188 121.667969 33.960938 C 123.261719 33.804688 124.855469 33.6875 126.453125 33.609375 C 128.050781 33.53125 129.648438 33.492188 131.25 33.492188 C 132.851562 33.492188 134.449219 33.53125 136.046875 33.609375 C 137.644531 33.6875 139.238281 33.804688 140.832031 33.960938 C 142.425781 34.117188 144.011719 34.316406 145.59375 34.550781 C 147.175781 34.785156 148.753906 35.058594 150.320312 35.371094 C 151.890625 35.683594 153.453125 36.03125 155.003906 36.421875 C 156.554688 36.808594 158.097656 37.238281 159.628906 37.699219 C 161.160156 38.164062 162.675781 38.667969 164.183594 39.207031 C 165.691406 39.746094 167.183594 40.320312 168.660156 40.933594 C 170.140625 41.546875 171.601562 42.191406 173.046875 42.878906 C 174.492188 43.5625 175.921875 44.28125 177.332031 45.035156 C 178.742188 45.789062 180.136719 46.578125 181.507812 47.398438 C 182.878906 48.222656 184.230469 49.078125 185.5625 49.964844 C 186.890625 50.855469 188.199219 51.777344 189.484375 52.730469 C 190.769531 53.683594 192.03125 54.667969 193.265625 55.679688 C 194.503906 56.695312 195.714844 57.742188 196.902344 58.816406 C 198.085938 59.890625 199.246094 60.992188 200.375 62.125 C 201.507812 63.253906 202.609375 64.414062 203.683594 65.597656 C 204.757812 66.785156 205.804688 67.996094 206.820312 69.234375 C 207.832031 70.46875 208.816406 71.730469 209.769531 73.015625 C 210.722656 74.300781 211.644531 75.609375 212.535156 76.9375 C 213.421875 78.269531 214.277344 79.621094 215.101562 80.992188 C 215.921875 82.363281 216.710938 83.757812 217.464844 85.167969 C 218.21875 86.578125 218.9375 88.007812 219.621094 89.453125 C 220.308594 90.898438 220.953125 92.359375 221.566406 93.839844 C 222.179688 95.316406 222.753906 96.808594 223.292969 98.316406 C 223.832031 99.824219 224.335938 101.339844 224.800781 102.871094 C 225.261719 104.402344 225.691406 105.945312 226.078125 107.496094 C 226.46875 109.046875 226.816406 110.609375 227.128906 112.179688 C 227.441406 113.746094 227.714844 115.324219 227.949219 116.90625 C 228.183594 118.488281 228.382812 120.074219 228.539062 121.667969 C 228.695312 123.261719 228.8125 124.855469 228.890625 126.453125 C 228.96875 128.050781 229.007812 129.648438 229.007812 131.25 C 229.007812 132.851562 228.96875 134.449219 228.890625 136.046875 C 228.808594 137.644531 228.691406 139.238281 228.535156 140.832031 C 228.375 142.421875 228.179688 144.007812 227.945312 145.59375 C 227.710938 147.175781 227.4375 148.75 227.121094 150.320312 C 226.808594 151.886719 226.460938 153.449219 226.070312 155 C 225.679688 156.550781 225.253906 158.09375 224.789062 159.621094 C 224.324219 161.152344 223.824219 162.671875 223.285156 164.179688 C 222.742188 165.683594 222.167969 167.175781 221.554688 168.652344 C 220.941406 170.132812 220.292969 171.59375 219.609375 173.039062 C 218.925781 174.484375 218.207031 175.914062 217.453125 177.324219 C 216.699219 178.734375 215.910156 180.125 215.085938 181.5 C 214.265625 182.871094 213.410156 184.222656 212.519531 185.550781 C 211.632812 186.882812 210.710938 188.1875 209.757812 189.472656 C 208.804688 190.757812 207.820312 192.019531 206.804688 193.253906 C 205.789062 194.492188 204.746094 195.703125 203.671875 196.886719 C 202.597656 198.074219 201.496094 199.230469 200.363281 200.363281 C 199.230469 201.496094 198.074219 202.597656 196.886719 203.671875 C 195.703125 204.746094 194.492188 205.789062 193.253906 206.804688 C 192.019531 207.820312 190.757812 208.804688 189.472656 209.757812 C 188.1875 210.710938 186.882812 211.632812 185.550781 212.519531 C 184.222656 213.410156 182.871094 214.265625 181.5 215.085938 C 180.125 215.910156 178.734375 216.699219 177.324219 217.453125 C 175.914062 218.207031 174.484375 218.925781 173.039062 219.609375 C 171.59375 220.292969 170.132812 220.941406 168.652344 221.554688 C 167.175781 222.167969 165.683594 222.742188 164.179688 223.285156 C 162.671875 223.824219 161.152344 224.324219 159.621094 224.789062 C 158.09375 225.253906 156.550781 225.679688 155 226.070312 C 153.449219 226.460938 151.886719 226.808594 150.320312 227.121094 C 148.75 227.4375 147.175781 227.710938 145.59375 227.945312 C 144.007812 228.179688 142.421875 228.375 140.832031 228.535156 C 139.238281 228.691406 137.644531 228.808594 136.046875 228.890625 C 134.449219 228.96875 132.851562 229.007812 131.25 229.007812 Z M 131.25 229.007812 " fill-opacity="1" fill-rule="evenodd"/></g><path fill="#000000" d="M 180.492188 87.078125 L 159.257812 87.078125 C 159.152344 86.234375 159.003906 85.398438 158.820312 84.570312 C 158.636719 83.742188 158.414062 82.921875 158.15625 82.113281 C 157.898438 81.304688 157.605469 80.507812 157.277344 79.726562 C 156.945312 78.941406 156.582031 78.175781 156.183594 77.425781 C 155.785156 76.675781 155.351562 75.945312 154.886719 75.234375 C 154.421875 74.523438 153.925781 73.835938 153.402344 73.167969 C 152.875 72.503906 152.316406 71.863281 151.734375 71.246094 C 151.148438 70.628906 150.539062 70.042969 149.898438 69.480469 C 149.261719 68.917969 148.601562 68.386719 147.914062 67.886719 C 147.230469 67.386719 146.523438 66.917969 145.792969 66.480469 C 145.066406 66.042969 144.320312 65.636719 143.554688 65.269531 C 142.789062 64.898438 142.011719 64.5625 141.214844 64.261719 C 140.421875 63.964844 139.613281 63.699219 138.796875 63.472656 C 137.976562 63.246094 137.152344 63.058594 136.316406 62.90625 C 135.480469 62.753906 134.640625 62.636719 133.792969 62.5625 C 132.945312 62.484375 132.097656 62.445312 131.25 62.445312 C 130.402344 62.445312 129.554688 62.484375 128.707031 62.5625 C 127.859375 62.636719 127.019531 62.753906 126.183594 62.90625 C 125.347656 63.058594 124.523438 63.246094 123.703125 63.472656 C 122.886719 63.699219 122.078125 63.964844 121.285156 64.261719 C 120.488281 64.5625 119.710938 64.898438 118.945312 65.269531 C 118.179688 65.636719 117.433594 66.042969 116.707031 66.480469 C 115.976562 66.917969 115.269531 67.386719 114.585938 67.886719 C 113.898438 68.386719 113.238281 68.917969 112.601562 69.480469 C 111.960938 70.042969 111.351562 70.628906 110.765625 71.246094 C 110.183594 71.863281 109.625 72.503906 109.097656 73.167969 C 108.574219 73.835938 108.078125 74.523438 107.613281 75.234375 C 107.148438 75.945312 106.714844 76.675781 106.316406 77.425781 C 105.917969 78.175781 105.554688 78.941406 105.222656 79.726562 C 104.894531 80.507812 104.601562 81.304688 104.34375 82.113281 C 104.085938 82.921875 103.863281 83.742188 103.679688 84.570312 C 103.496094 85.398438 103.347656 86.234375 103.242188 87.078125 L 82.007812 87.078125 C 81.527344 87.078125 81.066406 87.167969 80.621094 87.351562 C 80.179688 87.535156 79.789062 87.796875 79.449219 88.136719 C 79.109375 88.476562 78.847656 88.867188 78.664062 89.3125 C 78.480469 89.757812 78.386719 90.21875 78.386719 90.699219 L 78.386719 189.179688 C 78.386719 189.660156 78.480469 190.121094 78.664062 190.566406 C 78.847656 191.011719 79.109375 191.402344 79.449219 191.742188 C 79.789062 192.082031 80.179688 192.34375 80.621094 192.527344 C 81.066406 192.710938 81.527344 192.800781 82.007812 192.800781 L 180.492188 192.800781 C 180.972656 192.800781 181.433594 192.710938 181.875 192.527344 C 182.320312 192.34375 182.710938 192.082031 183.050781 191.742188 C 183.390625 191.402344 183.652344 191.011719 183.835938 190.566406 C 184.019531 190.121094 184.113281 189.660156 184.113281 189.179688 L 184.113281 90.699219 C 184.113281 90.21875 184.019531 89.757812 183.835938 89.3125 C 183.652344 88.867188 183.390625 88.476562 183.050781 88.136719 C 182.710938 87.796875 182.320312 87.535156 181.875 87.351562 C 181.433594 87.167969 180.972656 87.078125 180.492188 87.078125 Z M 131.25 69.699219 C 132.476562 69.699219 133.691406 69.804688 134.898438 70.015625 C 136.109375 70.230469 137.289062 70.546875 138.441406 70.964844 C 139.589844 71.386719 140.699219 71.902344 141.761719 72.515625 C 142.820312 73.128906 143.820312 73.832031 144.761719 74.617188 C 145.699219 75.40625 146.5625 76.273438 147.351562 77.210938 C 148.136719 78.152344 148.835938 79.152344 149.449219 80.214844 C 150.0625 81.277344 150.578125 82.382812 150.996094 83.539062 C 151.414062 84.691406 151.726562 85.871094 151.9375 87.078125 L 110.5625 87.078125 C 110.773438 85.871094 111.085938 84.691406 111.503906 83.539062 C 111.921875 82.386719 112.4375 81.277344 113.050781 80.214844 C 113.660156 79.152344 114.363281 78.152344 115.148438 77.210938 C 115.9375 76.273438 116.800781 75.410156 117.738281 74.621094 C 118.675781 73.832031 119.675781 73.128906 120.738281 72.515625 C 121.800781 71.902344 122.90625 71.386719 124.058594 70.96875 C 125.210938 70.546875 126.390625 70.230469 127.597656 70.019531 C 128.808594 69.804688 130.023438 69.699219 131.25 69.699219 Z M 176.871094 185.558594 L 85.628906 185.558594 L 85.628906 94.320312 L 176.871094 94.320312 Z M 176.871094 185.558594 " fill-opacity="1" fill-rule="evenodd"/><path fill="#000000" d="M 131.25 143.558594 C 132.175781 143.558594 133.097656 143.515625 134.019531 143.425781 C 134.9375 143.332031 135.851562 143.199219 136.757812 143.019531 C 137.667969 142.835938 138.5625 142.613281 139.449219 142.34375 C 140.332031 142.074219 141.203125 141.765625 142.058594 141.410156 C 142.910156 141.054688 143.746094 140.660156 144.5625 140.226562 C 145.378906 139.789062 146.171875 139.316406 146.941406 138.800781 C 147.710938 138.285156 148.449219 137.738281 149.167969 137.148438 C 149.882812 136.5625 150.566406 135.941406 151.21875 135.289062 C 151.875 134.632812 152.492188 133.949219 153.082031 133.234375 C 153.667969 132.519531 154.21875 131.777344 154.730469 131.007812 C 155.246094 130.238281 155.71875 129.449219 156.15625 128.632812 C 156.59375 127.816406 156.988281 126.980469 157.339844 126.125 C 157.695312 125.273438 158.007812 124.402344 158.273438 123.515625 C 158.542969 122.632812 158.769531 121.734375 158.949219 120.828125 C 159.128906 119.921875 159.265625 119.007812 159.355469 118.085938 C 159.445312 117.167969 159.492188 116.242188 159.492188 115.320312 C 159.492188 114.839844 159.398438 114.378906 159.214844 113.933594 C 159.03125 113.488281 158.769531 113.097656 158.429688 112.757812 C 158.089844 112.417969 157.699219 112.15625 157.257812 111.972656 C 156.8125 111.789062 156.351562 111.699219 155.871094 111.699219 C 155.390625 111.699219 154.929688 111.789062 154.484375 111.972656 C 154.042969 112.15625 153.648438 112.417969 153.308594 112.757812 C 152.972656 113.097656 152.710938 113.488281 152.527344 113.933594 C 152.34375 114.378906 152.25 114.839844 152.25 115.320312 C 152.25 116.007812 152.214844 116.691406 152.148438 117.378906 C 152.082031 118.0625 151.980469 118.742188 151.847656 119.414062 C 151.710938 120.089844 151.546875 120.757812 151.347656 121.414062 C 151.144531 122.074219 150.914062 122.71875 150.652344 123.355469 C 150.386719 123.992188 150.09375 124.613281 149.769531 125.21875 C 149.445312 125.824219 149.09375 126.414062 148.710938 126.984375 C 148.328125 127.558594 147.917969 128.109375 147.484375 128.640625 C 147.046875 129.171875 146.585938 129.683594 146.097656 130.167969 C 145.613281 130.65625 145.105469 131.117188 144.570312 131.550781 C 144.039062 131.988281 143.488281 132.398438 142.917969 132.78125 C 142.34375 133.160156 141.757812 133.515625 141.148438 133.839844 C 140.542969 134.164062 139.921875 134.457031 139.285156 134.71875 C 138.652344 134.984375 138.003906 135.214844 137.347656 135.414062 C 136.6875 135.613281 136.019531 135.78125 135.347656 135.914062 C 134.671875 136.050781 133.992188 136.152344 133.308594 136.21875 C 132.625 136.285156 131.9375 136.320312 131.25 136.320312 C 130.5625 136.320312 129.875 136.285156 129.191406 136.21875 C 128.507812 136.152344 127.828125 136.050781 127.152344 135.914062 C 126.480469 135.78125 125.8125 135.613281 125.152344 135.414062 C 124.496094 135.214844 123.847656 134.984375 123.214844 134.71875 C 122.578125 134.457031 121.957031 134.164062 121.351562 133.839844 C 120.742188 133.515625 120.15625 133.160156 119.582031 132.78125 C 119.011719 132.398438 118.460938 131.988281 117.925781 131.550781 C 117.394531 131.117188 116.886719 130.65625 116.402344 130.167969 C 115.914062 129.683594 115.453125 129.171875 115.015625 128.640625 C 114.582031 128.109375 114.171875 127.558594 113.789062 126.984375 C 113.40625 126.414062 113.054688 125.824219 112.730469 125.21875 C 112.40625 124.613281 112.113281 123.992188 111.847656 123.355469 C 111.585938 122.71875 111.355469 122.074219 111.152344 121.414062 C 110.953125 120.757812 110.789062 120.089844 110.652344 119.414062 C 110.519531 118.742188 110.417969 118.0625 110.351562 117.378906 C 110.285156 116.691406 110.25 116.007812 110.25 115.320312 C 110.25 114.839844 110.15625 114.378906 109.972656 113.933594 C 109.789062 113.488281 109.527344 113.097656 109.191406 112.757812 C 108.851562 112.417969 108.457031 112.15625 108.015625 111.972656 C 107.570312 111.789062 107.109375 111.699219 106.628906 111.699219 C 106.148438 111.699219 105.6875 111.789062 105.242188 111.972656 C 104.800781 112.15625 104.410156 112.417969 104.070312 112.757812 C 103.730469 113.097656 103.46875 113.488281 103.285156 113.933594 C 103.101562 114.378906 103.007812 114.839844 103.007812 115.320312 C 103.007812 116.242188 103.054688 117.167969 103.144531 118.085938 C 103.234375 119.007812 103.371094 119.921875 103.550781 120.828125 C 103.730469 121.734375 103.957031 122.632812 104.226562 123.515625 C 104.492188 124.402344 104.804688 125.273438 105.160156 126.125 C 105.511719 126.980469 105.90625 127.816406 106.34375 128.632812 C 106.78125 129.449219 107.253906 130.238281 107.769531 131.007812 C 108.28125 131.777344 108.832031 132.519531 109.417969 133.234375 C 110.007812 133.949219 110.625 134.632812 111.28125 135.289062 C 111.933594 135.941406 112.617188 136.5625 113.332031 137.148438 C 114.050781 137.738281 114.789062 138.285156 115.558594 138.800781 C 116.328125 139.316406 117.121094 139.789062 117.9375 140.226562 C 118.753906 140.660156 119.589844 141.054688 120.441406 141.410156 C 121.296875 141.765625 122.167969 142.074219 123.050781 142.34375 C 123.9375 142.613281 124.832031 142.835938 125.742188 143.019531 C 126.648438 143.199219 127.5625 143.332031 128.480469 143.425781 C 129.402344 143.515625 130.324219 143.558594 131.25 143.558594 Z M 131.25 143.558594 " fill-opacity="1" fill-rule="evenodd"/></svg>