<svg xmlns="http://www.w3.org/2000/svg" xmlns:xlink="http://www.w3.org/1999/xlink" width="40" zoomAndPan="magnify" viewBox="0 0 30 30.000001" height="40" preserveAspectRatio="xMidYMid meet" version="1.0"><defs><clipPath id="id1"><path d="M 3.386719 2.902344 L 26.613281 2.902344 L 26.613281 26.128906 L 3.386719 26.128906 Z M 3.386719 2.902344 " clip-rule="nonzero"/></clipPath></defs><g clip-path="url(#id1)"><path fill="#004aad" d="M 15 2.902344 C 8.597656 2.902344 3.386719 8.113281 3.386719 14.515625 C 3.386719 20.917969 8.597656 26.128906 15 26.128906 C 21.402344 26.128906 26.613281 20.917969 26.613281 14.515625 C 26.613281 8.113281 21.402344 2.902344 15 2.902344 Z M 15 5.933594 C 16.949219 5.933594 18.535156 7.519531 18.535156 9.46875 C 18.535156 11.414062 16.949219 13 15 13 C 13.050781 13 11.464844 11.414062 11.464844 9.46875 C 11.464844 7.519531 13.050781 5.933594 15 5.933594 Z M 21.058594 21.078125 L 8.941406 21.078125 C 8.664062 21.078125 8.4375 20.855469 8.4375 20.574219 C 8.4375 16.957031 11.378906 14.011719 15 14.011719 C 18.621094 14.011719 21.5625 16.957031 21.5625 20.574219 C 21.5625 20.855469 21.335938 21.078125 21.058594 21.078125 Z M 21.058594 21.078125 " fill-opacity="1" fill-rule="nonzero"/></g></svg>