<svg xmlns="http://www.w3.org/2000/svg" xmlns:xlink="http://www.w3.org/1999/xlink" width="1500" zoomAndPan="magnify" viewBox="0 0 1125 262.499992" height="350" preserveAspectRatio="xMidYMid meet" version="1.0"><defs><g/><clipPath id="id1"><path d="M 1.070312 0 L 1123.929688 0 L 1123.929688 262 L 1.070312 262 Z M 1.070312 0 " clip-rule="nonzero"/></clipPath><clipPath id="id2"><path d="M 460.847656 40.816406 L 562.652344 40.816406 L 562.652344 209.929688 L 460.847656 209.929688 Z M 460.847656 40.816406 " clip-rule="nonzero"/></clipPath></defs><g clip-path="url(#id1)"><path fill="#ffffff" d="M 1.070312 0 L 1123.929688 0 L 1123.929688 269.488281 L 1.070312 269.488281 Z M 1.070312 0 " fill-opacity="1" fill-rule="nonzero"/><path fill="#ffcc00" d="M 1.070312 0 L 1123.929688 0 L 1123.929688 262 L 1.070312 262 Z M 1.070312 0 " fill-opacity="1" fill-rule="nonzero"/><path fill="#ffffff" d="M 1.070312 0 L 1123.929688 0 L 1123.929688 262 L 1.070312 262 Z M 1.070312 0 " fill-opacity="1" fill-rule="nonzero"/><path fill="#ffcc00" d="M 1.070312 0 L 1123.929688 0 L 1123.929688 262 L 1.070312 262 Z M 1.070312 0 " fill-opacity="1" fill-rule="nonzero"/></g><g clip-path="url(#id2)"><path fill="#061e28" d="M 533.828125 128.535156 C 533.742188 128.304688 533.625 128.097656 533.480469 127.914062 L 541.542969 124.476562 C 542.148438 124.222656 542.609375 123.71875 542.816406 123.097656 C 543.023438 122.476562 542.953125 121.796875 542.621094 121.230469 L 538.589844 114.320312 C 538.140625 113.546875 537.28125 113.109375 536.390625 113.195312 L 515.027344 115.300781 L 507.597656 114.285156 L 510.230469 113.105469 C 510.230469 113.105469 510.230469 113.101562 510.234375 113.101562 L 526.410156 105.835938 C 526.707031 105.703125 526.96875 105.507812 527.183594 105.261719 L 534.015625 97.527344 L 553.800781 94.363281 C 555.046875 94.164062 555.894531 92.992188 555.695312 91.75 C 555.496094 90.503906 554.320312 89.65625 553.078125 89.855469 L 538.765625 92.144531 L 550.773438 78.550781 C 551.242188 78.019531 551.4375 77.300781 551.300781 76.605469 L 549.664062 68.207031 L 562.140625 52.910156 C 562.9375 51.933594 562.789062 50.496094 561.8125 49.699219 C 560.832031 48.90625 559.390625 49.054688 558.59375 50.03125 L 548.527344 62.375 L 547.117188 55.144531 C 547 54.546875 546.652344 54.023438 546.144531 53.683594 L 527.710938 41.355469 C 526.660156 40.652344 525.242188 40.933594 524.539062 41.980469 C 523.835938 43.027344 524.117188 44.445312 525.164062 45.148438 L 542.808594 56.949219 L 544.972656 68.039062 C 544.972656 68.042969 544.972656 68.042969 544.972656 68.046875 L 546.597656 76.375 L 531.132812 93.890625 C 531.128906 93.894531 531.125 93.898438 531.121094 93.902344 L 524.082031 101.875 L 514.214844 106.308594 L 526.21875 82.273438 L 534.773438 68.816406 C 535.449219 67.753906 535.132812 66.34375 534.066406 65.667969 C 533 64.992188 531.585938 65.308594 530.910156 66.371094 L 524.695312 76.152344 L 518.890625 61.585938 C 518.425781 60.414062 517.097656 59.84375 515.921875 60.308594 C 514.75 60.773438 514.175781 62.101562 514.644531 63.273438 L 521.722656 81.046875 L 507.996094 108.53125 L 479.472656 104.628906 L 475.910156 97.074219 C 475.375 95.933594 474.011719 95.445312 472.871094 95.980469 C 471.726562 96.519531 471.238281 97.878906 471.773438 99.019531 L 475.863281 107.695312 C 476.195312 108.394531 476.855469 108.878906 477.621094 108.984375 L 501.109375 112.195312 L 498.476562 113.378906 L 478.980469 121.75 C 478.546875 121.9375 478.179688 122.257812 477.933594 122.660156 L 474.601562 128.128906 L 462.207031 133.601562 C 461.476562 133.921875 460.96875 134.601562 460.867188 135.390625 C 460.761719 136.183594 461.082031 136.96875 461.703125 137.46875 L 473.355469 146.785156 C 473.765625 147.117188 474.273438 147.289062 474.785156 147.289062 C 475.027344 147.289062 475.273438 147.25 475.511719 147.167969 L 477.535156 146.492188 L 491.515625 149.761719 L 502.605469 155.027344 L 500.625 184.046875 C 500.558594 185.03125 501.132812 185.949219 502.046875 186.320312 L 559.507812 209.542969 C 559.785156 209.65625 560.078125 209.710938 560.367188 209.710938 C 560.949219 209.710938 561.519531 209.488281 561.957031 209.070312 C 562.605469 208.441406 562.824219 207.492188 562.511719 206.644531 Z M 505.300781 182.710938 L 507.269531 153.789062 C 507.335938 152.851562 506.820312 151.972656 505.972656 151.570312 L 493.257812 145.535156 C 493.113281 145.464844 492.957031 145.414062 492.800781 145.375 L 485.773438 143.730469 L 489.777344 142.390625 C 490.972656 141.988281 491.621094 140.695312 491.21875 139.5 C 490.816406 138.308594 489.519531 137.664062 488.324219 138.0625 L 475.238281 142.445312 L 467.5 136.253906 L 477.105469 132.011719 C 477.53125 131.824219 477.890625 131.511719 478.132812 131.113281 L 481.460938 125.65625 L 499.714844 117.816406 L 514.675781 119.859375 C 514.851562 119.882812 515.03125 119.886719 515.210938 119.867188 L 535.378906 117.882812 L 537.371094 121.296875 L 522.5625 127.605469 L 514.046875 125.160156 C 512.832031 124.808594 511.566406 125.507812 511.214844 126.71875 C 510.867188 127.929688 511.566406 129.195312 512.78125 129.542969 L 522.078125 132.214844 C 522.585938 132.363281 523.125 132.328125 523.609375 132.121094 L 529.417969 129.644531 C 529.441406 129.800781 529.480469 129.953125 529.535156 130.105469 L 556.445312 203.382812 Z M 505.300781 182.710938 " fill-opacity="1" fill-rule="nonzero"/></g><path fill="#061e28" d="M 527.839844 141.746094 C 526.621094 142.074219 525.898438 143.324219 526.222656 144.542969 L 527.992188 151.148438 C 528.261719 152.167969 529.1875 152.839844 530.199219 152.839844 C 530.394531 152.839844 530.589844 152.816406 530.789062 152.761719 C 532.007812 152.4375 532.734375 151.1875 532.40625 149.96875 L 530.640625 143.363281 C 530.3125 142.144531 529.0625 141.421875 527.839844 141.746094 Z M 527.839844 141.746094 " fill-opacity="1" fill-rule="nonzero"/><path fill="#061e28" d="M 528.871094 159.195312 C 528.546875 157.980469 527.292969 157.253906 526.074219 157.582031 C 524.855469 157.90625 524.128906 159.15625 524.453125 160.375 L 526.222656 166.980469 C 526.496094 168 527.417969 168.671875 528.429688 168.671875 C 528.625 168.671875 528.824219 168.648438 529.019531 168.59375 C 530.242188 168.269531 530.964844 167.019531 530.640625 165.800781 Z M 528.871094 159.195312 " fill-opacity="1" fill-rule="nonzero"/><path fill="#061e28" d="M 537.304688 179.222656 C 537.578125 180.242188 538.503906 180.917969 539.511719 180.917969 C 539.707031 180.917969 539.90625 180.890625 540.105469 180.839844 C 541.324219 180.515625 542.050781 179.261719 541.722656 178.046875 L 539.957031 171.441406 C 539.628906 170.222656 538.375 169.496094 537.15625 169.824219 C 535.9375 170.148438 535.210938 171.402344 535.539062 172.617188 Z M 537.304688 179.222656 " fill-opacity="1" fill-rule="nonzero"/><path fill="#061e28" d="M 500.632812 123.375 L 496.363281 125.351562 C 495.21875 125.882812 494.71875 127.242188 495.25 128.382812 C 495.636719 129.214844 496.464844 129.707031 497.328125 129.707031 C 497.648438 129.707031 497.976562 129.636719 498.289062 129.492188 L 502.558594 127.515625 C 503.703125 126.984375 504.199219 125.625 503.667969 124.484375 C 503.136719 123.339844 501.777344 122.84375 500.632812 123.375 Z M 500.632812 123.375 " fill-opacity="1" fill-rule="nonzero"/><g fill="#061e28" fill-opacity="1"><g transform="translate(565.298949, 96.584625)"><g><path d="M 2.226562 -23.382812 L 2.226562 0 L 11.738281 0 C 18.453125 0 23.945312 -4.992188 23.945312 -11.707031 C 23.945312 -18.359375 18.453125 -23.382812 11.707031 -23.382812 Z M 7.09375 -4.394531 L 7.09375 -18.988281 L 11.707031 -18.988281 C 15.785156 -18.988281 18.957031 -15.945312 18.957031 -11.707031 C 18.957031 -7.5 15.785156 -4.394531 11.738281 -4.394531 Z M 7.09375 -4.394531 "/></g></g></g><g fill="#061e28" fill-opacity="1"><g transform="translate(590.49528, 96.584625)"><g><path d="M 16.726562 0 L 16.726562 -4.394531 L 7.09375 -4.394531 L 7.09375 -10.261719 L 15.882812 -10.261719 L 15.882812 -14.625 L 7.09375 -14.625 L 7.09375 -18.988281 L 14.65625 -18.988281 L 14.65625 -23.382812 L 2.226562 -23.382812 L 2.226562 0 Z M 16.726562 0 "/></g></g></g><g fill="#061e28" fill-opacity="1"><g transform="translate(608.474728, 96.584625)"><g><path d="M 16.726562 0 L 16.726562 -4.394531 L 7.09375 -4.394531 L 7.09375 -10.261719 L 15.882812 -10.261719 L 15.882812 -14.625 L 7.09375 -14.625 L 7.09375 -18.988281 L 14.65625 -18.988281 L 14.65625 -23.382812 L 2.226562 -23.382812 L 2.226562 0 Z M 16.726562 0 "/></g></g></g><g fill="#061e28" fill-opacity="1"><g transform="translate(626.454177, 96.584625)"><g><path d="M 9.542969 -4.046875 L 13.371094 0 L 19.835938 0 L 14.78125 -5.398438 C 18.046875 -6.90625 20.054688 -9.980469 20.054688 -14.1875 C 20.054688 -19.269531 15.847656 -23.382812 10.355469 -23.382812 L 2.226562 -23.382812 L 2.226562 0 L 7.09375 0 L 7.09375 -4.046875 Z M 7.09375 -8.441406 L 7.09375 -18.988281 L 10.042969 -18.988281 C 13.371094 -18.988281 15.066406 -16.664062 15.066406 -13.808594 C 15.066406 -10.324219 12.960938 -8.441406 9.101562 -8.441406 Z M 7.09375 -8.441406 "/></g></g></g><g fill="#061e28" fill-opacity="1"><g transform="translate(565.298949, 127.52569)"><g><path d="M 7.847656 -10.355469 C 10.105469 -10.105469 11.363281 -8.945312 11.363281 -7.0625 C 11.363281 -5.554688 10.105469 -4.269531 8.503906 -4.269531 C 7.125 -4.269531 6.027344 -4.613281 4.957031 -5.964844 L 0.941406 -3.011719 C 3.167969 -0.566406 5.835938 0.40625 8.503906 0.40625 C 12.617188 0.40625 16.414062 -2.855469 16.414062 -7.40625 C 16.414062 -11.925781 13.117188 -14.625 9.132812 -14.875 C 6.652344 -15.035156 5.867188 -16.007812 5.867188 -17.074219 C 5.867188 -18.359375 6.746094 -19.144531 8.035156 -19.144531 C 8.851562 -19.144531 9.886719 -18.644531 10.515625 -17.984375 L 14.34375 -20.777344 C 12.554688 -22.910156 10.355469 -23.789062 8.035156 -23.789062 C 4.800781 -23.789062 1.160156 -20.996094 1.160156 -17.042969 C 1.160156 -13.371094 3.796875 -10.828125 7.847656 -10.355469 Z M 7.847656 -10.355469 "/></g></g></g><g fill="#061e28" fill-opacity="1"><g transform="translate(582.744974, 127.52569)"><g><path d="M 12.113281 0.40625 C 18.328125 0.40625 22.125 -3.609375 22.125 -10.417969 L 22.125 -23.382812 L 17.324219 -23.382812 L 17.324219 -10.011719 C 17.324219 -6.496094 15.753906 -4.269531 12.113281 -4.269531 C 8.664062 -4.269531 6.875 -6.339844 6.875 -10.011719 L 6.875 -23.382812 L 2.007812 -23.382812 L 2.007812 -10.828125 C 2.007812 -4.332031 5.273438 0.40625 12.113281 0.40625 Z M 12.113281 0.40625 "/></g></g></g><g fill="#061e28" fill-opacity="1"><g transform="translate(606.874466, 127.52569)"><g><path d="M 7.09375 0 L 7.09375 -3.546875 L 9.886719 -3.546875 C 15.753906 -3.546875 19.992188 -7.972656 19.992188 -13.964844 C 19.992188 -18.707031 15.945312 -23.382812 10.199219 -23.382812 L 2.226562 -23.382812 L 2.226562 0 Z M 7.09375 -7.972656 L 7.09375 -18.988281 L 10.042969 -18.988281 C 13.214844 -18.988281 15.003906 -16.195312 15.003906 -13.464844 C 15.003906 -10.453125 13.152344 -7.972656 9.761719 -7.972656 Z M 7.09375 -7.972656 "/></g></g></g><g fill="#061e28" fill-opacity="1"><g transform="translate(627.803428, 127.52569)"><g><path d="M 7.09375 0 L 7.09375 -3.546875 L 9.886719 -3.546875 C 15.753906 -3.546875 19.992188 -7.972656 19.992188 -13.964844 C 19.992188 -18.707031 15.945312 -23.382812 10.199219 -23.382812 L 2.226562 -23.382812 L 2.226562 0 Z M 7.09375 -7.972656 L 7.09375 -18.988281 L 10.042969 -18.988281 C 13.214844 -18.988281 15.003906 -16.195312 15.003906 -13.464844 C 15.003906 -10.453125 13.152344 -7.972656 9.761719 -7.972656 Z M 7.09375 -7.972656 "/></g></g></g><g fill="#061e28" fill-opacity="1"><g transform="translate(648.73239, 127.52569)"><g><path d="M 2.226562 -23.382812 L 2.226562 0 L 16.507812 0 L 16.507812 -4.394531 L 7.09375 -4.394531 L 7.09375 -23.382812 Z M 2.226562 -23.382812 "/></g></g></g><g fill="#061e28" fill-opacity="1"><g transform="translate(665.707755, 127.52569)"><g><path d="M 12.207031 -11.894531 L 5.398438 -23.382812 L -0.1875 -23.382812 L 9.730469 -7.09375 L 9.730469 0 L 14.5625 0 L 14.5625 -7.53125 L 24.167969 -23.382812 L 19.050781 -23.382812 Z M 12.207031 -11.894531 "/></g></g></g><g fill="#061e28" fill-opacity="1"><g transform="translate(689.680358, 127.52569)"><g/></g></g><g fill="#061e28" fill-opacity="1"><g transform="translate(565.298949, 158.466755)"><g><path d="M 20.402344 -10.324219 C 19.742188 -6.8125 16.792969 -4.269531 13.277344 -4.269531 C 9.351562 -4.269531 6.246094 -7.5625 6.246094 -11.675781 C 6.246094 -15.816406 9.351562 -19.144531 13.277344 -19.144531 C 15.691406 -19.144531 18.078125 -17.921875 19.773438 -15.410156 L 23.570312 -18.109375 C 21.46875 -21.53125 17.605469 -23.789062 13.246094 -23.789062 C 6.589844 -23.789062 1.253906 -18.359375 1.253906 -11.675781 C 1.253906 -4.992188 6.589844 0.40625 13.277344 0.40625 C 19.488281 0.40625 24.636719 -4.332031 25.328125 -10.324219 Z M 20.402344 -10.324219 "/></g></g></g><g fill="#061e28" fill-opacity="1"><g transform="translate(591.875905, 158.466755)"><g><path d="M 13.371094 0.40625 C 20.054688 0.40625 25.453125 -5.023438 25.453125 -11.707031 C 25.453125 -18.390625 20.054688 -23.789062 13.339844 -23.789062 C 6.652344 -23.789062 1.253906 -18.390625 1.253906 -11.707031 C 1.253906 -5.023438 6.652344 0.40625 13.371094 0.40625 Z M 13.339844 -19.144531 C 17.292969 -19.144531 20.464844 -15.816406 20.464844 -11.707031 C 20.464844 -7.53125 17.324219 -4.269531 13.371094 -4.269531 C 9.351562 -4.269531 6.246094 -7.53125 6.246094 -11.707031 C 6.246094 -15.816406 9.351562 -19.144531 13.339844 -19.144531 Z M 13.339844 -19.144531 "/></g></g></g><g fill="#061e28" fill-opacity="1"><g transform="translate(618.57837, 158.466755)"><g><path d="M 4.300781 -4.394531 C 2.855469 -4.394531 1.882812 -3.328125 1.882812 -1.976562 C 1.882812 -0.691406 2.855469 0.40625 4.300781 0.40625 C 5.773438 0.40625 6.714844 -0.691406 6.714844 -1.976562 C 6.714844 -3.328125 5.742188 -4.394531 4.300781 -4.394531 Z M 4.300781 -4.394531 "/></g></g></g><g fill="#061e28" fill-opacity="1"><g transform="translate(439.298718, 187.36164)"><g><path d="M 9.351562 0 L 16.320312 -12.273438 C 16.917969 -13.308594 17.167969 -14.53125 17.167969 -15.816406 C 17.167969 -20.179688 13.589844 -23.789062 9.226562 -23.789062 C 4.707031 -23.789062 1.128906 -20.179688 1.128906 -15.816406 C 1.128906 -11.425781 4.550781 -7.847656 8.945312 -7.753906 L 4.582031 0 Z M 9.226562 -12.304688 C 7.34375 -12.304688 5.867188 -13.746094 5.867188 -15.816406 C 5.867188 -17.703125 7.3125 -19.269531 9.226562 -19.269531 C 11.015625 -19.269531 12.492188 -17.703125 12.492188 -15.816406 C 12.492188 -13.746094 11.015625 -12.304688 9.226562 -12.304688 Z M 9.226562 -12.304688 "/></g></g></g><g fill="#061e28" fill-opacity="1"><g transform="translate(457.842971, 187.36164)"><g><path d="M 13.371094 0.40625 C 20.023438 0.40625 25.390625 -5.023438 25.390625 -11.675781 C 25.390625 -18.390625 20.023438 -23.789062 13.339844 -23.789062 C 6.652344 -23.789062 1.253906 -18.390625 1.253906 -11.675781 C 1.253906 -5.023438 6.652344 0.40625 13.371094 0.40625 Z M 13.339844 -19.425781 C 17.449219 -19.425781 20.714844 -16.007812 20.714844 -11.675781 C 20.714844 -7.375 17.480469 -4.015625 13.371094 -4.015625 C 9.226562 -4.015625 5.933594 -7.375 5.933594 -11.675781 C 5.933594 -16.007812 9.226562 -19.425781 13.339844 -19.425781 Z M 13.339844 -19.425781 "/></g></g></g></svg>